<svg width="27" height="27" viewBox="0 0 27 27" fill="none" xmlns="http://www.w3.org/2000/svg">
<g clip-path="url(#clip0_1038_31)">
<path d="M13.9219 0C21.1465 0 27 5.85352 27 13.0781C27 20.3027 21.1465 26.1562 13.9219 26.1562C6.69728 26.1562 0.843775 20.3027 0.843775 13.0781C0.843775 5.85352 6.69728 0 13.9219 0ZM2.53127 13.0781C2.53127 19.3377 7.59898 24.4687 13.9219 24.4687C20.1814 24.4687 25.3125 19.401 25.3125 13.0781C25.3125 6.81855 20.2447 1.68751 13.9219 1.68751C7.66227 1.68751 2.53127 6.75527 2.53127 13.0781ZM7.40918 13.7373L13.4737 19.807C13.7215 20.0549 14.1223 20.0549 14.3701 19.807L20.4346 13.7373C20.6824 13.4894 20.6824 13.0886 20.4346 12.8408L20.0707 12.4769C19.8229 12.2291 19.4115 12.2291 19.1689 12.4875L14.8184 16.9963V6.96094C14.8184 6.6129 14.5336 6.32812 14.1856 6.32812L13.6582 6.32812C13.3102 6.32812 13.0254 6.6129 13.0254 6.96094V16.9963L8.67477 12.4822C8.42697 12.2291 8.02088 12.2238 7.77308 12.4717L7.40918 12.8355C7.16138 13.0886 7.16138 13.4894 7.40918 13.7373Z" fill="white"/>
</g>
<defs>
<clipPath id="clip0_1038_31">
<rect width="27" height="27" fill="white" transform="matrix(0 1 -1 0 27 0)"/>
</clipPath>
</defs>
</svg>
