<svg width="175" height="24" viewBox="0 0 175 24" fill="none" xmlns="http://www.w3.org/2000/svg">
<path d="M3.94 9.14C1.93 9.14 0.3 7.56 0.3 5.5C0.3 3.44 1.93 1.86 3.94 1.86C5.95 1.86 7.58 3.44 7.58 5.5C7.58 7.56 5.95 9.14 3.94 9.14ZM3.94 7.58C5.08 7.58 5.98 6.75 5.98 5.5C5.98 4.25 5.08 3.42 3.94 3.42C2.8 3.42 1.9 4.25 1.9 5.5C1.9 6.75 2.8 7.58 3.94 7.58ZM7.58047 9V7.5C8.30047 7.61 8.74047 7.39 8.74047 6.22V2H13.5805V9H11.9805V3.54H10.3405V6.16C10.3405 8.66 8.87047 9.14 7.58047 9ZM17.4297 4.2C18.8097 4.2 19.8797 5.27 19.8797 6.6C19.8797 7.93 18.8097 9 17.4297 9H14.7797V2H16.3797V4.2H17.4297ZM17.4297 7.5C17.9197 7.5 18.2797 7.11 18.2797 6.6C18.2797 6.09 17.9197 5.7 17.4297 5.7H16.3797V7.5H17.4297ZM24.6781 2V3.54H22.2781V9H20.6781V2H24.6781ZM29.0246 9L28.6746 7.9H26.0746L25.7246 9H23.9746L26.3546 2H28.3946L30.7746 9H29.0246ZM26.5546 6.4H28.1946L27.3746 3.83L26.5546 6.4ZM37.2115 9.14C35.2015 9.14 33.5715 7.56 33.5715 5.5C33.5715 3.44 35.2015 1.86 37.2115 1.86C39.2215 1.86 40.8515 3.44 40.8515 5.5C40.8515 7.56 39.2215 9.14 37.2115 9.14ZM37.2115 7.58C38.3515 7.58 39.2515 6.75 39.2515 5.5C39.2515 4.25 38.3515 3.42 37.2115 3.42C36.0715 3.42 35.1715 4.25 35.1715 5.5C35.1715 6.75 36.0715 7.58 37.2115 7.58ZM47.0523 2V9H45.4523V3.54H43.3523V9H41.7523V2H47.0523ZM52.1563 9V5.2L49.4563 9H48.2563V2H49.8563V5.8L52.5563 2H53.7563V9H52.1563ZM61.9555 2V9H60.3555V4.93L58.5455 7.9H58.3655L56.5555 4.93V9H54.9555V2H56.5555L58.4555 5.11L60.3555 2H61.9555ZM67.6086 9L67.2586 7.9H64.6586L64.3086 9H62.5586L64.9386 2H66.9786L69.3586 9H67.6086ZM65.1386 6.4H66.7786L65.9586 3.83L65.1386 6.4ZM75.4555 9H73.6355L72.4555 6.98L71.2755 9H69.4555L71.5455 5.41L69.5555 2H71.3755L72.4555 3.85L73.5355 2H75.3555L73.3655 5.41L75.4555 9ZM81.1566 11V1.8H82.6566V11H81.1566Z" fill="#E5E2DD"/>
<path d="M94.26 9H92.44L90.2 5.76V9H88.6V2H90.2V5.04L92.34 2H94.16L91.8 5.41L94.26 9ZM97.6041 9.14C95.5941 9.14 93.9641 7.56 93.9641 5.5C93.9641 3.44 95.5941 1.86 97.6041 1.86C99.6141 1.86 101.244 3.44 101.244 5.5C101.244 7.56 99.6141 9.14 97.6041 9.14ZM97.6041 7.58C98.7441 7.58 99.6441 6.75 99.6441 5.5C99.6441 4.25 98.7441 3.42 97.6041 3.42C96.4641 3.42 95.5641 4.25 95.5641 5.5C95.5641 6.75 96.4641 7.58 97.6041 7.58ZM109.145 2V9H107.545V4.93L105.735 7.9H105.555L103.745 4.93V9H102.145V2H103.745L105.645 5.11L107.545 2H109.145ZM115.648 2V9H114.048V3.54H111.948V9H110.348V2H115.648ZM116.352 9V7.5C117.072 7.61 117.512 7.39 117.512 6.22V2H122.352V9H120.752V3.54H119.112V6.16C119.112 8.66 117.642 9.14 116.352 9ZM125.151 7.46H127.951V9H123.551V2H127.901V3.54H125.151V4.7H127.651V6.22H125.151V7.46ZM134.514 9H132.694L130.454 5.76V9H128.854V2H130.454V5.04L132.594 2H134.414L132.054 5.41L134.514 9ZM137.858 9.14C135.748 9.14 134.218 7.56 134.218 5.5C134.218 3.44 135.748 1.86 137.858 1.86C139.128 1.86 140.248 2.49 140.858 3.48L139.478 4.28C139.168 3.74 138.568 3.42 137.858 3.42C136.618 3.42 135.818 4.25 135.818 5.5C135.818 6.75 136.618 7.58 137.858 7.58C138.568 7.58 139.178 7.26 139.478 6.72L140.858 7.52C140.258 8.51 139.138 9.14 137.858 9.14ZM145.408 2H147.008V9H145.408V6.22H143.208V9H141.608V2H143.208V4.68H145.408V2ZM151.549 9.14C149.539 9.14 147.909 7.56 147.909 5.5C147.909 3.44 149.539 1.86 151.549 1.86C153.559 1.86 155.189 3.44 155.189 5.5C155.189 7.56 153.559 9.14 151.549 9.14ZM151.549 7.58C152.689 7.58 153.589 6.75 153.589 5.5C153.589 4.25 152.689 3.42 151.549 3.42C150.409 3.42 149.509 4.25 149.509 5.5C149.509 6.75 150.409 7.58 151.549 7.58ZM157.69 7.46H160.49V9H156.09V2H160.44V3.54H157.69V4.7H160.19V6.22H157.69V7.46Z" fill="url(#paint0_linear_1085_459)"/>
<path d="M5.9 14V21H4.3V15.54H2.2V21H0.6V14H5.9ZM9.75391 14C11.1339 14 12.2039 15.07 12.2039 16.4C12.2039 17.73 11.1339 18.8 9.75391 18.8H8.70391V21H7.10391V14H9.75391ZM9.75391 17.3C10.2439 17.3 10.6039 16.91 10.6039 16.4C10.6039 15.89 10.2439 15.5 9.75391 15.5H8.70391V17.3H9.75391ZM16.2935 21.14C14.2835 21.14 12.6535 19.56 12.6535 17.5C12.6535 15.44 14.2835 13.86 16.2935 13.86C18.3035 13.86 19.9335 15.44 19.9335 17.5C19.9335 19.56 18.3035 21.14 16.2935 21.14ZM16.2935 19.58C17.4335 19.58 18.3335 18.75 18.3335 17.5C18.3335 16.25 17.4335 15.42 16.2935 15.42C15.1535 15.42 14.2535 16.25 14.2535 17.5C14.2535 18.75 15.1535 19.58 16.2935 19.58ZM26.0316 19.46H26.7816V22.34H25.1816V21H21.6816V22.34H20.0816V19.46H20.7916C21.1116 19 21.3416 18.33 21.3416 17.14V14H26.0316V19.46ZM22.4916 19.46H24.4316V15.5H22.9416V17.16C22.9416 18.31 22.7416 19.01 22.4916 19.46ZM31.9713 17.37C32.4913 17.7 32.8313 18.24 32.8313 18.95C32.8313 20.19 31.8213 21 30.5713 21H27.6313V14H30.3713C31.5913 14 32.5813 14.79 32.5813 16C32.5813 16.58 32.3513 17.04 31.9713 17.37ZM30.3713 15.5H29.2313V16.74H30.3713C30.7313 16.74 30.9813 16.48 30.9813 16.12C30.9813 15.76 30.7413 15.5 30.3713 15.5ZM30.5713 19.5C30.9713 19.5 31.2313 19.22 31.2313 18.83C31.2313 18.44 30.9713 18.16 30.5713 18.16H29.2313V19.5H30.5713ZM37.5273 21V17.2L34.8273 21H33.6273V14H35.2273V17.8L37.9273 14H39.1273V21H37.5273ZM48.8466 21H47.0766L45.1366 17.9V21H43.5366V17.9L41.5966 21H39.8266L42.0866 17.44L39.9266 14H41.6966L43.5366 17.08V14H45.1366V17.08L46.9766 14H48.7466L46.5866 17.44L48.8466 21ZM51.1453 19.46H53.9453V21H49.5453V14H53.8953V15.54H51.1453V16.7H53.6453V18.22H51.1453V19.46ZM58.648 14H60.248V21H58.648V18.22H56.448V21H54.848V14H56.448V16.68H58.648V14ZM65.3496 21V17.2L62.6496 21H61.4496V14H63.0496V17.8L65.7496 14H66.9496V21H65.3496ZM69.7488 19.46H72.5488V21H68.1488V14H72.4988V15.54H69.7488V16.7H72.2488V18.22H69.7488V19.46ZM80.2916 17.37C80.8116 17.7 81.1516 18.24 81.1516 18.95C81.1516 20.19 80.1416 21 78.8916 21H75.9516V14H78.6916C79.9116 14 80.9016 14.79 80.9016 16C80.9016 16.58 80.6716 17.04 80.2916 17.37ZM78.6916 15.5H77.5516V16.74H78.6916C79.0516 16.74 79.3016 16.48 79.3016 16.12C79.3016 15.76 79.0616 15.5 78.6916 15.5ZM78.8916 19.5C79.2916 19.5 79.5516 19.22 79.5516 18.83C79.5516 18.44 79.2916 18.16 78.8916 18.16H77.5516V19.5H78.8916ZM84.5977 14C85.9777 14 87.0477 15.07 87.0477 16.4C87.0477 17.73 85.9777 18.8 84.5977 18.8H83.5477V21H81.9477V14H84.5977ZM84.5977 17.3C85.0877 17.3 85.4477 16.91 85.4477 16.4C85.4477 15.89 85.0877 15.5 84.5977 15.5H83.5477V17.3H84.5977ZM91.593 21L91.243 19.9H88.643L88.293 21H86.543L88.923 14H90.963L93.343 21H91.593ZM89.123 18.4H90.763L89.943 15.83L89.123 18.4ZM96.9918 14H98.5918V21H96.9918V18.56C96.6018 18.71 96.2218 18.78 95.8018 18.78C94.4118 18.78 93.2918 17.97 93.2918 16.5V14H94.8918V16.26C94.8918 16.91 95.2918 17.24 95.8418 17.24C96.2718 17.24 96.6318 17.17 96.9918 17.01V14ZM101.389 19.46H104.189V21H99.7895V14H104.139V15.54H101.389V16.7H103.889V18.22H101.389V19.46ZM106.342 13.41V12.11H109.342V13.41H106.342ZM108.992 21V17.2L106.292 21H105.092V14H106.692V17.8L109.392 14H110.592V21H108.992ZM118.191 21V17.2L115.491 21H114.291V14H115.891V17.8L118.591 14H119.791V21H118.191ZM129.151 21H127.331L125.091 17.76V21H123.491V14H125.091V17.04L127.231 14H129.051L126.691 17.41L129.151 21ZM129.348 21V19.5C130.068 19.61 130.508 19.39 130.508 18.22V14H135.348V21H133.748V15.54H132.108V18.16C132.108 20.66 130.638 21.14 129.348 21ZM140.447 21V17.2L137.747 21H136.547V14H138.147V17.8L140.847 14H142.047V21H140.447ZM147.046 14H148.646V21H147.046V18.22H144.846V21H143.246V14H144.846V16.68H147.046V14ZM153.748 21V17.2L151.048 21H149.848V14H151.448V17.8L154.148 14H155.348V21H153.748ZM162.207 21H160.387L158.147 17.76V21H156.547V14H158.147V17.04L160.287 14H162.107L159.747 17.41L162.207 21Z" fill="url(#paint1_linear_1085_459)"/>
<defs>
<linearGradient id="paint0_linear_1085_459" x1="125.5" y1="12" x2="125.5" y2="0.9" gradientUnits="userSpaceOnUse">
<stop stop-color="#3A8E84"/>
<stop offset="0.990385" stop-color="#6DCCC4"/>
</linearGradient>
<linearGradient id="paint1_linear_1085_459" x1="87.5" y1="24" x2="87.5" y2="12.9" gradientUnits="userSpaceOnUse">
<stop stop-color="#3A8E84"/>
<stop offset="0.990385" stop-color="#6DCCC4"/>
</linearGradient>
</defs>
</svg>
