<svg width="283" height="41" viewBox="0 0 283 41" fill="none" xmlns="http://www.w3.org/2000/svg">
<path fill-rule="evenodd" clip-rule="evenodd" d="M15.2412 37.4889C15.3439 37.4955 15.2492 37.4889 14.9906 37.4742C15.0799 37.4809 15.1626 37.4822 15.2412 37.4889C15.1492 37.4809 14.8826 37.4582 14.4226 37.4182C14.7199 37.4582 14.1679 37.3955 13.6426 37.2995C13.5079 37.2835 13.3372 37.2515 13.1666 37.2035C12.8572 37.1475 12.6359 37.0929 12.4186 37.0222C12.2159 36.9822 12.0786 36.9355 11.9466 36.8835C11.6559 36.7969 11.4559 36.7249 11.2639 36.6382C11.0692 36.5742 10.9426 36.5222 10.8172 36.4582C10.6559 36.3915 10.5186 36.3289 10.4039 36.2702H10.3972C10.3039 36.2235 10.2106 36.1769 10.1226 36.1209C9.97191 36.0489 9.86924 35.9942 9.77191 35.9275C9.66657 35.8742 9.58124 35.8169 9.49724 35.7702C9.44124 35.7422 9.40524 35.7169 9.36391 35.6902C9.22924 35.6089 9.17057 35.5675 9.25191 35.6142C8.81324 35.3115 8.80524 35.3022 8.79857 35.2969C8.76124 35.2742 8.73191 35.2489 8.70924 35.2249C8.47324 35.0569 8.26257 34.8862 8.21457 34.8382C8.00791 34.6595 7.96391 34.6195 7.91724 34.5809C7.90524 34.5702 7.89591 34.5622 7.65591 34.3382C7.57191 34.2622 7.27191 33.9555 6.98791 33.6249C6.98791 33.6249 6.98791 33.6222 6.97991 33.6222H6.98791C4.71724 31.0289 3.53857 27.3782 3.53857 22.5635V16.4662C4.04524 17.5515 5.02524 18.2849 6.14257 18.2849C8.56791 18.2849 10.4946 16.0982 11.5146 14.7342C13.5159 12.0315 16.7279 6.81287 21.6306 6.81287C21.6546 6.81287 21.6799 6.81287 21.7092 6.81287C21.7399 6.81287 21.7679 6.81287 21.8012 6.81287C24.5386 6.81287 26.8946 8.7582 27.9439 11.5569V22.8635C27.9439 23.4715 27.9239 24.0609 27.8919 24.6395C27.8919 24.6609 27.8892 24.6849 27.8252 25.5249C27.8506 25.2635 27.8106 25.7129 27.7479 26.2022C27.7479 26.2035 27.7466 26.2155 27.7466 26.2289C27.7439 26.2542 27.7439 26.2729 27.7439 26.2915C27.7439 26.2769 27.7439 26.2569 27.7466 26.2289C27.7466 26.2195 27.7479 26.2115 27.7479 26.2022C27.7559 26.1635 27.7332 26.3115 27.6106 27.1902C27.7239 26.5342 27.6252 27.1902 27.4959 27.8275C27.4466 28.0862 27.3892 28.3382 27.3119 28.5889C27.2719 28.8169 27.2159 29.0289 27.1546 29.2435C27.0719 29.5209 26.9906 29.7875 26.8786 30.0622C26.8372 30.2355 26.7772 30.3849 26.7199 30.5462C26.6066 30.8355 26.4879 31.1155 26.3319 31.4155C26.2932 31.5289 26.2412 31.6289 26.1892 31.7289C26.0399 32.0369 25.8732 32.3235 25.6626 32.6449C25.6346 32.7075 25.6092 32.7542 25.5746 32.8022C25.3772 33.1155 25.1586 33.4102 24.8772 33.7555C24.8746 33.7582 24.8719 33.7622 24.8652 33.7635C24.8532 33.7942 24.8332 33.8155 24.8132 33.8409C24.2119 34.5622 23.5452 35.1769 22.7919 35.6929C22.7812 35.7049 22.7506 35.7249 22.7212 35.7489C22.6252 35.8129 22.5306 35.8742 22.4906 35.8742C22.3039 35.9995 22.1106 36.1222 21.9292 36.2249C21.9332 36.2249 21.9332 36.2235 21.9292 36.2249C21.9266 36.2329 21.9186 36.2342 21.9172 36.2342C21.6546 36.3822 21.7159 36.3529 21.9172 36.2342C21.5052 36.4315 21.3066 36.5302 21.2266 36.5649C21.2386 36.5609 21.2479 36.5569 21.2586 36.5542C21.1892 36.5862 21.1186 36.6182 21.2266 36.5649C20.8372 36.7462 20.4239 36.8955 19.9079 37.0382C19.8146 37.0755 19.7119 37.1062 19.5652 37.1289C19.2306 37.2249 18.8772 37.3009 18.3799 37.3635C18.2452 37.3955 18.0959 37.4182 17.9412 37.4249C17.4226 37.4929 16.8732 37.5195 16.3012 37.5195C16.0879 37.5195 15.8786 37.5195 15.2412 37.4889ZM21.9292 36.2249L21.9332 36.2235C21.9266 36.2302 21.9186 36.2342 21.9172 36.2342C21.9186 36.2329 21.9266 36.2302 21.9292 36.2249ZM6.00791 13.7662C5.99591 13.7595 5.92391 13.7342 5.85457 13.7049C5.84391 13.6969 5.81991 13.6889 5.79857 13.6755C5.71724 13.6369 5.67457 13.6155 5.63057 13.5889C5.62391 13.5862 5.61991 13.5822 5.61857 13.5809C5.48924 13.5115 5.41591 13.4609 5.38124 13.4382C5.31457 13.3929 5.28791 13.3729 5.26257 13.3462L5.26524 13.3489C4.63324 12.8515 4.21591 12.0742 4.18924 11.1782C4.11457 8.8542 5.75991 6.9102 6.79457 5.88086C7.90391 6.80086 9.66124 8.58353 9.73057 10.9142C9.75457 11.5689 9.56124 12.1782 9.24124 12.6489C9.21991 12.6809 9.21991 12.6809 9.21724 12.6835C9.22391 12.6782 9.22791 12.6742 9.14657 12.7902C8.83857 13.2755 8.24391 13.6969 7.65591 13.8235C7.55457 13.8489 7.56257 13.8449 7.53324 13.8515C7.53324 13.8542 7.53991 13.8542 7.41724 13.8782C7.44657 13.8755 7.34791 13.8929 7.22657 13.9075C7.19591 13.9075 7.16657 13.9129 7.11991 13.9142C7.09724 13.9209 7.07324 13.9209 7.04924 13.9209C7.01991 13.9222 6.99591 13.9289 6.96257 13.9289H6.87991C6.59324 13.9289 6.32391 13.8755 6.00791 13.7662Z" fill="white"/>
<path d="M15.2412 37.4889C15.3439 37.4955 15.2492 37.4889 14.9906 37.4742C15.0799 37.4809 15.1626 37.4822 15.2412 37.4889ZM15.2412 37.4889C15.1492 37.4809 14.8826 37.4582 14.4226 37.4182C14.7199 37.4582 14.1679 37.3955 13.6426 37.2995C13.5079 37.2835 13.3372 37.2515 13.1666 37.2035C12.8572 37.1475 12.6359 37.0929 12.4186 37.0222C12.2159 36.9822 12.0786 36.9355 11.9466 36.8835C11.6559 36.7969 11.4559 36.7249 11.2639 36.6382C11.0692 36.5742 10.9426 36.5222 10.8172 36.4582C10.6559 36.3915 10.5186 36.3289 10.4039 36.2702H10.3972C10.3039 36.2235 10.2106 36.1769 10.1226 36.1209C9.97191 36.0489 9.86924 35.9942 9.77191 35.9275C9.66657 35.8742 9.58124 35.8169 9.49724 35.7702C9.44124 35.7422 9.40524 35.7169 9.36391 35.6902C9.22924 35.6089 9.17057 35.5675 9.25191 35.6142C8.81324 35.3115 8.80524 35.3022 8.79857 35.2969C8.76124 35.2742 8.73191 35.2489 8.70924 35.2249C8.47324 35.0569 8.26257 34.8862 8.21457 34.8382C8.00791 34.6595 7.96391 34.6195 7.91724 34.5809C7.90524 34.5702 7.89591 34.5622 7.65591 34.3382C7.57191 34.2622 7.27191 33.9555 6.98791 33.6249C6.98791 33.6249 6.98791 33.6222 6.97991 33.6222H6.98791C4.71724 31.0289 3.53857 27.3782 3.53857 22.5635V16.4662C4.04524 17.5515 5.02524 18.2849 6.14257 18.2849C8.56791 18.2849 10.4946 16.0982 11.5146 14.7342C13.5159 12.0315 16.7279 6.81287 21.6306 6.81287C21.6546 6.81287 21.6799 6.81287 21.7092 6.81287C21.7399 6.81287 21.7679 6.81287 21.8012 6.81287C24.5386 6.81287 26.8946 8.7582 27.9439 11.5569V22.8635C27.9439 23.4715 27.9239 24.0609 27.8919 24.6395C27.8919 24.6609 27.8892 24.6849 27.8252 25.5249C27.8506 25.2635 27.8106 25.7129 27.7479 26.2022M15.2412 37.4889C15.8786 37.5195 16.0879 37.5195 16.3012 37.5195C16.8732 37.5195 17.4226 37.4929 17.9412 37.4249C18.0959 37.4182 18.2452 37.3955 18.3799 37.3635C18.8772 37.3009 19.2306 37.2249 19.5652 37.1289C19.7119 37.1062 19.8146 37.0755 19.9079 37.0382C20.4239 36.8955 20.8372 36.7462 21.2266 36.5649M27.7479 26.2022C27.7479 26.2035 27.7466 26.2155 27.7466 26.2289M27.7479 26.2022C27.7479 26.2115 27.7466 26.2195 27.7466 26.2289M27.7479 26.2022C27.7559 26.1635 27.7332 26.3115 27.6106 27.1902C27.7239 26.5342 27.6252 27.1902 27.4959 27.8275C27.4466 28.0862 27.3892 28.3382 27.3119 28.5889C27.2719 28.8169 27.2159 29.0289 27.1546 29.2435C27.0719 29.5209 26.9906 29.7875 26.8786 30.0622C26.8372 30.2355 26.7772 30.3849 26.7199 30.5462C26.6066 30.8355 26.4879 31.1155 26.3319 31.4155C26.2932 31.5289 26.2412 31.6289 26.1892 31.7289C26.0399 32.0369 25.8732 32.3235 25.6626 32.6449C25.6346 32.7075 25.6092 32.7542 25.5746 32.8022C25.3772 33.1155 25.1586 33.4102 24.8772 33.7555C24.8746 33.7582 24.8719 33.7622 24.8652 33.7635C24.8532 33.7942 24.8332 33.8155 24.8132 33.8409C24.2119 34.5622 23.5452 35.1769 22.7919 35.6929C22.7812 35.7049 22.7506 35.7249 22.7212 35.7489C22.6252 35.8129 22.5306 35.8742 22.4906 35.8742C22.3039 35.9995 22.1106 36.1222 21.9292 36.2249M21.2266 36.5649C21.3066 36.5302 21.5052 36.4315 21.9172 36.2342M21.2266 36.5649C21.2386 36.5609 21.2479 36.5569 21.2586 36.5542C21.1892 36.5862 21.1186 36.6182 21.2266 36.5649ZM27.7466 26.2289C27.7439 26.2542 27.7439 26.2729 27.7439 26.2915C27.7439 26.2769 27.7439 26.2569 27.7466 26.2289ZM21.9292 36.2249C21.9332 36.2249 21.9332 36.2235 21.9292 36.2249ZM21.9292 36.2249C21.9266 36.2329 21.9186 36.2342 21.9172 36.2342M21.9292 36.2249L21.9332 36.2235C21.9266 36.2302 21.9186 36.2342 21.9172 36.2342M21.9292 36.2249C21.9266 36.2302 21.9186 36.2329 21.9172 36.2342M21.9172 36.2342C21.6546 36.3822 21.7159 36.3529 21.9172 36.2342ZM6.00791 13.7662C5.99591 13.7595 5.92391 13.7342 5.85457 13.7049C5.84391 13.6969 5.81991 13.6889 5.79857 13.6755C5.71724 13.6369 5.67457 13.6155 5.63057 13.5889C5.62391 13.5862 5.61991 13.5822 5.61857 13.5809C5.48924 13.5115 5.41591 13.4609 5.38124 13.4382C5.31457 13.3929 5.28791 13.3729 5.26257 13.3462L5.26524 13.3489C4.63324 12.8515 4.21591 12.0742 4.18924 11.1782C4.11457 8.8542 5.75991 6.9102 6.79457 5.88086C7.90391 6.80086 9.66124 8.58353 9.73057 10.9142C9.75457 11.5689 9.56124 12.1782 9.24124 12.6489C9.21991 12.6809 9.21991 12.6809 9.21724 12.6835C9.22391 12.6782 9.22791 12.6742 9.14657 12.7902C8.83857 13.2755 8.24391 13.6969 7.65591 13.8235C7.55457 13.8489 7.56257 13.8449 7.53324 13.8515C7.53324 13.8542 7.53991 13.8542 7.41724 13.8782C7.44657 13.8755 7.34791 13.8929 7.22657 13.9075C7.19591 13.9075 7.16657 13.9129 7.11991 13.9142C7.09724 13.9209 7.07324 13.9209 7.04924 13.9209C7.01991 13.9222 6.99591 13.9289 6.96257 13.9289H6.87991C6.59324 13.9289 6.32391 13.8755 6.00791 13.7662Z" stroke="white" stroke-width="0.0226667" stroke-miterlimit="10"/>
<path d="M4.1894 11.2017C4.11206 8.87639 5.75873 6.93239 6.79473 5.90305C7.8974 6.82705 9.65473 8.60705 9.73073 10.9391C9.7854 12.5231 8.58006 13.8657 7.04273 13.9431C5.52273 14.0177 4.23473 12.7911 4.1894 11.2017Z" fill="#8FD2E8"/>
<path d="M9.34401 9.23464C9.58534 9.68931 9.72268 10.4986 9.72268 11.0613C9.65201 12.7586 8.45601 13.9453 6.87334 13.9453C6.27734 13.9453 5.71734 13.7133 5.26001 13.3706C6.56268 13.5026 9.50668 10.2773 9.34401 9.23464Z" fill="#3F92AE" fill-opacity="0.388235"/>
<path d="M6.9868 33.6463C4.71747 31.0489 3.53613 27.4036 3.53613 22.5863V16.5796C4.05613 17.6743 5.03747 18.4156 6.16947 18.4156C8.6108 18.4156 10.5655 16.2169 11.5921 14.8369C13.6121 12.1023 16.8548 6.83292 21.8001 6.83292C24.5375 6.83292 26.8908 8.78492 27.9388 11.5823V22.8849C27.9388 27.8036 26.8535 31.4169 24.8081 33.8649C22.7695 36.3036 19.9668 37.5449 16.2988 37.5449C12.3135 37.5449 9.2348 36.2303 6.9868 33.6463Z" fill="#18A9D9" fill-opacity="0.368627"/>
<path d="M3.53589 22.2352V22.2072V16.4885C4.04389 17.5699 5.02389 18.3072 6.14256 18.3072C8.56389 18.3072 10.4892 16.1272 11.5146 14.7539C13.5146 12.0552 16.7266 6.83255 21.6292 6.83255C24.5599 6.83255 27.0532 9.09655 27.9386 12.2432V18.0859V17.9592C27.0532 14.7445 24.5599 12.2832 21.6292 12.2832C16.7266 12.2832 13.5146 17.8072 11.5146 20.5099C10.5026 21.8792 8.56389 24.0605 6.14256 24.0605C5.01989 24.0605 4.04389 23.3219 3.53589 22.2352Z" fill="#7BCEE1" fill-opacity="0.580392"/>
<path d="M3.76013 25.9836C3.61213 24.9196 3.53613 23.7916 3.53613 22.5849V22.2409C4.04413 23.3303 5.02413 24.0609 6.1428 24.0609C8.56413 24.0609 10.4895 21.8796 11.5148 20.5103C13.5148 17.8076 16.7268 12.2849 21.6295 12.2849C16.3855 13.2903 13.6881 19.3969 11.9121 22.4729C11.0135 24.0343 9.23213 26.5796 6.64813 27.0743C5.52813 27.2903 4.45347 26.8396 3.76013 25.9836Z" fill="#77C4DE"/>
<path d="M7.91333 34.5996C15.24 32.8023 18.2627 17.4743 25.0653 17.4743C25.9133 17.4743 26.9733 17.8476 27.9387 18.8329V22.8849C27.9387 27.7556 26.8773 31.3449 24.8653 33.7863C24.22 34.5476 23.4987 35.2036 22.7187 35.7703C20.9707 36.9463 18.8453 37.5449 16.2987 37.5449C12.8333 37.5449 10.0653 36.5543 7.91333 34.5996Z" fill="#0085B1"/>
<path d="M6.98661 33.6447C6.98128 33.6447 6.98128 33.6447 6.97461 33.6447C14.7279 33.5087 18.0693 17.49 24.6439 17.49C18.4893 18.6647 16.8626 33.4927 10.3959 36.29C9.09594 35.654 7.96528 34.77 6.98661 33.6447Z" fill="#00677E"/>
<path fill-rule="evenodd" clip-rule="evenodd" d="M22.4173 33.2979L21.6293 29.7792L20.1853 30.6179L21.0239 29.1445L18.2319 28.4085L21.0159 27.6405L20.1706 26.1792L21.6186 27.0019L22.3773 23.4712L23.1679 26.9939L24.6066 26.1592L23.7759 27.6245L26.5653 28.3712L23.7813 29.1339L24.6306 30.5979L23.1746 29.7792L22.4173 33.2979Z" fill="white" stroke="white" stroke-width="0.0226667" stroke-miterlimit="10"/>
<path fill-rule="evenodd" clip-rule="evenodd" d="M4.46267 36.3818C1.508 33.3951 0 29.0151 0 23.1818V0.000465393H2.21467V22.5858C2.21467 27.6125 3.448 31.6018 5.98667 34.5125C8.528 37.4258 11.9867 38.8645 16.2987 38.8645C20.3107 38.8645 23.4987 37.4885 25.8213 34.7111C28.148 31.9378 29.26 27.9685 29.26 22.8845V0.000465393H31.4853V23.5951C31.4853 29.4791 30.0213 33.7938 27.1933 36.6178C24.3333 39.4765 20.7213 40.9111 16.2987 40.9111C11.404 40.9111 7.47067 39.3898 4.46267 36.3818Z" fill="#191919"/>
<path d="M133.825 2.87801H135.431V14.7487C135.431 17.6847 134.7 19.882 133.243 21.3407C131.785 22.7993 129.937 23.5273 127.701 23.5273C125.233 23.5273 123.229 22.7607 121.692 21.2233C120.177 19.6887 119.419 17.4607 119.419 14.5447V2.87801H121.021V14.2527C121.021 16.6847 121.62 18.5833 122.815 19.9553C124.011 21.3247 125.64 22.0127 127.701 22.0127C129.605 22.0127 131.104 21.3607 132.192 20.0567C133.281 18.7553 133.825 16.8673 133.825 14.3993V2.87801Z" fill="black"/>
<path d="M40.1094 23.2148L48.9747 2.70018H50.2814L50.4134 3.00951L49.5894 4.92151L49.584 4.90951L45.3414 14.7922H53.7947L50.5294 7.12418L51.3587 5.20418L59.1427 23.2148H57.4254L54.4654 16.3002H44.7L41.7347 23.2148H40.1094Z" fill="black"/>
<path d="M67.0825 23.2148V2.87618H68.6825V5.46551V5.46284V23.2148H67.0825ZM84.7239 23.2148V5.37351L76.9038 16.3602H76.6425L70.3799 7.78951V5.15084L76.9038 14.0322L84.7812 2.87618H86.3238V23.2148H84.7239Z" fill="black"/>
<path d="M99.0081 23.2148V2.87618C99.5294 2.87618 100.065 2.87084 100.608 2.86551V4.38151V13.5082C102.003 13.6082 103.107 13.6588 103.921 13.6588C105.7 13.6588 107.083 13.2322 108.064 12.3802C109.043 11.5228 109.529 10.3748 109.529 8.91884C109.529 7.48684 109.081 6.36018 108.177 5.54818C107.279 4.73218 105.924 4.33084 104.125 4.33084C103.729 4.33084 103.124 4.33751 102.308 4.35218V2.83084C102.877 2.81884 103.431 2.81751 103.981 2.81751C105.332 2.81751 106.503 2.99218 107.48 3.34018C108.459 3.68818 109.209 4.16284 109.731 4.76418C110.253 5.36418 110.635 6.00951 110.868 6.69884C111.097 7.38551 111.215 8.13351 111.215 8.94684C111.215 10.7108 110.601 12.1855 109.381 13.3695C108.143 14.5695 106.34 15.1682 103.981 15.1682C102.641 15.1682 101.52 15.1282 100.608 15.0522V23.2148H99.0081Z" fill="black"/>
<path d="M145.664 23.2148V21.7455H157.987V23.2148H145.664ZM145.664 20.0042V2.87618H147.264V20.0042H145.664Z" fill="black"/>
<path d="M165.811 23.2148V21.7455H174.849V21.7068H178.133V23.2148H165.811ZM165.811 20.0042V2.87618H167.408V20.0042H165.811Z" fill="black"/>
<path d="M183.339 23.2148L192.201 2.70018H193.509L193.635 2.99351L190.756 9.66418L190.769 9.66951L188.568 14.7922H197.029L193.751 7.10951L194.585 5.18684L202.373 23.2148H200.657L197.693 16.3002H187.932L184.963 23.2148H183.339Z" fill="black"/>
<path fill-rule="evenodd" clip-rule="evenodd" d="M210.992 11.6087C212.095 11.11 213.399 11.606 213.895 12.7087C214.392 13.8127 213.899 15.114 212.792 15.6114C211.689 16.11 210.388 15.6154 209.891 14.51C209.395 13.406 209.887 12.1047 210.992 11.6087Z" fill="black"/>
<path d="M224.373 23.2949H223.491V2.64959H224.404L233.163 14.5949L241.657 2.64959H242.513V23.2949H241.657V3.97759L233.195 15.8923H233.045L224.373 4.06425V23.2949Z" fill="black"/>
<path d="M260.856 23.2949H249.353V2.64959H260.563V3.47492H250.239V12.3829H259.676V13.2083H250.239V22.4683H260.856V23.2949Z" fill="black"/>
<path d="M266.525 23.2968H266.32V2.65014H266.644C267.449 2.65014 268.176 2.63947 268.825 2.6208C270.123 2.58213 270.951 2.56214 271.304 2.56214C273.291 2.56214 275.043 2.8328 276.568 3.3728C278.093 3.9128 279.307 4.65947 280.211 5.61414C281.113 6.5688 281.789 7.63414 282.231 8.8128C282.673 9.99414 282.895 11.2728 282.895 12.6461C282.895 15.7355 281.861 18.3021 279.797 20.3461C277.772 22.3515 274.863 23.3555 271.068 23.3555C270.183 23.3555 269.416 23.3448 268.767 23.3248C268.119 23.3048 267.371 23.2968 266.525 23.2968ZM271.244 3.38614C270.891 3.38614 270.163 3.40614 269.063 3.44747C268.531 3.46614 267.913 3.4768 267.203 3.4768V22.4688C267.557 22.4688 267.931 22.4688 268.325 22.4688C268.719 22.4688 269.071 22.4755 269.387 22.4848C269.7 22.4941 269.985 22.5048 270.241 22.5141C270.496 22.5235 270.705 22.5288 270.86 22.5288H271.097C274.596 22.5288 277.28 21.6048 279.147 19.7568C281.036 17.8888 281.979 15.5181 281.979 12.6461C281.979 9.93414 281.085 7.7128 279.296 5.98347C277.545 4.2528 274.863 3.38614 271.244 3.38614Z" fill="black"/>
<path d="M40.936 39.874H40.104V29.2887H40.9507L45.2147 35.0954L49.3133 29.2887H50.1147V39.874H49.2827V30.59L45.2147 36.306H45.0787L40.936 30.6354V39.874Z" fill="black"/>
<path d="M61.74 39.874H60.908V34.8687H54.3V39.874H53.468V29.2887H54.3V34.0834H60.908V29.2887H61.74V39.874Z" fill="black"/>
<path d="M64.2346 34.5818C64.2346 33.0391 64.7386 31.7484 65.7466 30.7098C66.756 29.6724 68.02 29.1524 69.5426 29.1524C71.0546 29.1524 72.3146 29.6671 73.324 30.6951C74.3413 31.7138 74.8506 33.0084 74.8506 34.5818C74.8506 36.1244 74.3413 37.4191 73.324 38.4684C72.3146 39.4964 71.0546 40.0098 69.5426 40.0098C68.0306 40.0098 66.7653 39.5018 65.7466 38.4831C64.7386 37.4644 64.2346 36.1644 64.2346 34.5818ZM65.112 34.5818C65.112 35.8924 65.536 36.9964 66.3826 37.8938C67.2386 38.7804 68.2933 39.2244 69.5426 39.2244C70.8333 39.2244 71.892 38.7804 72.7186 37.8938C73.5546 36.9964 73.9733 35.8924 73.9733 34.5818C73.9733 33.2404 73.5453 32.1364 72.688 31.2698C71.8413 30.3831 70.7933 29.9391 69.5426 29.9391C68.2826 29.9391 67.2293 30.3831 66.3826 31.2698C65.536 32.1471 65.112 33.2511 65.112 34.5818Z" fill="black"/>
<path d="M78.1787 39.874H77.3467V29.2887H83.184V30.0754H78.1787V39.874Z" fill="black"/>
<path d="M83.6653 34.5818C83.6653 33.0391 84.1693 31.7484 85.1773 30.7098C86.1866 29.6724 87.4506 29.1524 88.9733 29.1524C90.4853 29.1524 91.7453 29.6671 92.7546 30.6951C93.772 31.7138 94.2813 33.0084 94.2813 34.5818C94.2813 36.1244 93.772 37.4191 92.7546 38.4684C91.7453 39.4964 90.4853 40.0098 88.9733 40.0098C87.4613 40.0098 86.1959 39.5018 85.1773 38.4831C84.1693 37.4644 83.6653 36.1644 83.6653 34.5818ZM84.5426 34.5818C84.5426 35.8924 84.9666 36.9964 85.8133 37.8938C86.6693 38.7804 87.7239 39.2244 88.9733 39.2244C90.2639 39.2244 91.3226 38.7804 92.1493 37.8938C92.9853 36.9964 93.404 35.8924 93.404 34.5818C93.404 33.2404 92.9759 32.1364 92.1186 31.2698C91.2719 30.3831 90.2239 29.9391 88.9733 29.9391C87.7133 29.9391 86.66 30.3831 85.8133 31.2698C84.9666 32.1471 84.5426 33.2511 84.5426 34.5818Z" fill="black"/>
<path d="M105.004 39.874H104.172V30.0754H97.6093V39.874H96.7773V29.2887H105.004V39.874Z" fill="black"/>
<path d="M109.193 35.6247V39.874H108.361V29.2887C108.775 29.2887 109.204 29.2847 109.648 29.274C110.091 29.2634 110.524 29.2594 110.948 29.2594C111.653 29.2594 112.261 29.35 112.771 29.5314C113.279 29.7127 113.669 29.9594 113.943 30.2727C114.215 30.5847 114.411 30.9194 114.532 31.278C114.653 31.6354 114.713 32.026 114.713 32.45C114.713 33.3674 114.396 34.1327 113.76 34.7487C113.116 35.3727 112.177 35.686 110.948 35.686C110.252 35.686 109.668 35.666 109.193 35.6247ZM111.024 30.0447C110.691 30.0447 110.081 30.0554 109.193 30.0754V34.8234C109.92 34.874 110.495 34.8994 110.917 34.8994C111.845 34.8994 112.564 34.678 113.072 34.234C113.581 33.79 113.836 33.19 113.836 32.434C113.836 31.6887 113.601 31.1034 113.133 30.6807C112.664 30.2567 111.961 30.0447 111.024 30.0447Z" fill="black"/>
<path d="M116.151 34.5818C116.151 33.0391 116.655 31.7484 117.663 30.7098C118.671 29.6724 119.936 29.1524 121.457 29.1524C122.971 29.1524 124.231 29.6671 125.239 30.6951C126.256 31.7138 126.765 33.0084 126.765 34.5818C126.765 36.1244 126.256 37.4191 125.239 38.4684C124.231 39.4964 122.971 40.0098 121.457 40.0098C119.945 40.0098 118.68 39.5018 117.663 38.4831C116.655 37.4644 116.151 36.1644 116.151 34.5818ZM117.027 34.5818C117.027 35.8924 117.451 36.9964 118.297 37.8938C119.155 38.7804 120.208 39.2244 121.457 39.2244C122.748 39.2244 123.807 38.7804 124.633 37.8938C125.471 36.9964 125.889 35.8924 125.889 34.5818C125.889 33.2404 125.46 32.1364 124.603 31.2698C123.756 30.3831 122.708 29.9391 121.457 29.9391C120.197 29.9391 119.144 30.3831 118.297 31.2698C117.451 32.1471 117.027 33.2511 117.027 34.5818Z" fill="black"/>
<path d="M134.252 39.9951H133.42V38.6191H133.345C131.803 38.6191 130.568 38.2511 129.64 37.5151C128.712 36.7698 128.249 35.7404 128.249 34.4298C128.249 33.1205 128.712 32.0911 129.64 31.3458C130.568 30.6098 131.823 30.2418 133.405 30.2418H133.42V29.1684H134.252V30.2418H134.283C135.875 30.2418 137.136 30.6151 138.063 31.3604C139 32.1071 139.469 33.1298 139.469 34.4298C139.469 35.7404 139 36.7698 138.063 37.5151C137.136 38.2511 135.9 38.6191 134.357 38.6191H134.252V39.9951ZM134.312 31.0125H134.252V37.8485H134.357C135.668 37.8485 136.701 37.5525 137.459 36.9631C138.215 36.3738 138.592 35.5298 138.592 34.4298C138.592 33.3511 138.212 32.5125 137.451 31.9125C136.689 31.3125 135.644 31.0125 134.312 31.0125ZM129.125 34.4298C129.125 35.5298 129.509 36.3711 130.275 36.9551C131.051 37.5511 132.08 37.8485 133.36 37.8485H133.42V31.0125H133.391C132.08 31.0125 131.041 31.3151 130.275 31.9205C129.509 32.5044 129.125 33.3418 129.125 34.4298Z" fill="black"/>
<path d="M149.677 30.65L142.555 39.874H141.815V29.2887H142.647V38.514L149.768 29.2887H150.509V39.874H149.677V30.65Z" fill="black"/>
<path d="M161.456 39.8737H160.624V30.075H156.177L155.996 32.071C155.764 34.743 155.407 36.7084 154.923 37.9684C154.731 38.5137 154.489 38.9364 154.197 39.239C153.935 39.5217 153.683 39.7057 153.441 39.791C153.199 39.8764 152.916 39.9044 152.593 39.8737L152.609 39.043C152.821 39.0524 153.003 39.0217 153.153 38.9524C153.304 38.8817 153.481 38.7204 153.683 38.4684C153.915 38.175 154.121 37.7777 154.303 37.2737C154.736 36.043 155.049 34.087 155.24 31.4057L155.392 29.2884H161.456V39.8737Z" fill="black"/>
<path d="M167.309 34.1736C166.704 34.1736 166.149 34.203 165.645 34.2643V39.0723C166.584 39.103 167.117 39.1176 167.249 39.1176C168.287 39.1176 169.081 38.899 169.631 38.4603C170.18 38.0216 170.455 37.3843 170.455 36.547C170.455 35.7816 170.185 35.1936 169.645 34.7856C169.107 34.3776 168.328 34.1736 167.309 34.1736ZM164.815 29.2883H165.645V33.463C166.452 33.4123 167.021 33.387 167.355 33.387C168.665 33.387 169.656 33.659 170.327 34.203C170.996 34.7483 171.332 35.5243 171.332 36.5323C171.332 37.611 170.967 38.443 170.235 39.027C169.504 39.6123 168.479 39.9043 167.157 39.9043C166.675 39.9043 166.256 39.899 165.903 39.8896C165.551 39.879 165.187 39.8736 164.815 39.8736V29.2883Z" fill="black"/>
<path d="M182.101 39.874H181.269V34.8687H174.661V39.874H173.829V29.2887H174.661V34.0834H181.269V29.2887H182.101V39.874Z" fill="black"/>
<path d="M184.944 39.874H184.097L188.709 29.198H189.389L194.001 39.874H193.109L191.567 36.2754H186.487L184.944 39.874ZM191.22 35.4887L189.027 30.3474L186.819 35.4887H191.22Z" fill="black"/>
<path d="M201.937 39.874H201.105V35.7314H198.747L195.737 39.874H194.785L197.931 35.61C197.275 35.398 196.731 35.03 196.297 34.506C195.853 33.9714 195.632 33.3474 195.632 32.6314C195.632 31.6434 195.969 30.8314 196.645 30.1967C197.331 29.5607 198.313 29.2434 199.593 29.2434C199.655 29.2434 200.057 29.254 200.804 29.274C201.176 29.2847 201.555 29.2887 201.937 29.2887V39.874ZM198.641 34.9447H201.105V30.0754C200.259 30.0447 199.704 30.03 199.443 30.03C198.515 30.03 197.795 30.2647 197.28 30.7327C196.765 31.202 196.509 31.8194 196.509 32.586C196.509 33.19 196.72 33.7154 197.144 34.158C197.577 34.5914 198.076 34.854 198.641 34.9447Z" fill="black"/>
<path d="M215.156 29.2887H216.169L211.164 34.294L216.38 39.874H215.307L210.18 34.3554L215.156 29.2887ZM209.681 39.874H208.849V29.2887H209.681V39.874Z" fill="black"/>
<path d="M225.88 39.8737H225.048V30.075H220.603L220.421 32.071C220.189 34.743 219.832 36.7084 219.348 37.9684C219.156 38.5137 218.915 38.9364 218.621 39.239C218.36 39.5217 218.108 39.7057 217.865 39.791C217.624 39.8764 217.341 39.9044 217.019 39.8737L217.033 39.043C217.245 39.0524 217.427 39.0217 217.579 38.9524C217.729 38.8817 217.905 38.7204 218.108 38.4684C218.34 38.175 218.547 37.7777 218.728 37.2737C219.161 36.043 219.473 34.087 219.665 31.4057L219.816 29.2884H225.88V39.8737Z" fill="black"/>
<path d="M237.103 30.65L229.98 39.874H229.239V29.2887H230.071V38.514L237.193 29.2887H237.935V39.874H237.103V30.65Z" fill="black"/>
<path d="M249.56 39.874H248.729V34.8687H242.12V39.874H241.289V29.2887H242.12V34.0834H248.729V29.2887H249.56V39.874Z" fill="black"/>
<path d="M260.781 30.65L253.659 39.874H252.917V29.2887H253.749V38.514L260.872 29.2887H261.612V39.874H260.781V30.65Z" fill="black"/>
<path d="M271.273 29.2887H272.287L267.281 34.294L272.497 39.874H271.424L266.297 34.3554L271.273 29.2887ZM265.799 39.874H264.967V29.2887H265.799V39.874Z" fill="black"/>
<path d="M273.831 39.874H272.984L277.596 29.198H278.277L282.889 39.874H281.997L280.455 36.2754H275.373L273.831 39.874ZM280.107 35.4887L277.913 30.3474L275.707 35.4887H280.107Z" fill="black"/>
</svg>
