<svg width="231" height="60" viewBox="0 0 231 60" fill="none" xmlns="http://www.w3.org/2000/svg">
<g clip-path="url(#clip0_1013_360)">
<path d="M15.0983 44.6533C15.0983 44.8414 14.7008 45.0807 13.9316 45.4098L12.0128 46.1533L9.82905 47.1405C9.26123 47.4554 8.64429 47.6722 8.00427 47.7816C7.86954 47.7794 7.75344 47.6861 7.72222 47.5551C7.66666 47.3841 7.85469 47.179 8.32478 46.9696C8.74953 46.8382 9.13647 46.6066 9.45298 46.2944C9.92307 45.6704 10.188 45.3115 10.2436 45.2174C10.494 44.7704 10.618 44.2638 10.6026 43.7516C10.6026 43.5422 10.1111 43.2217 10.1111 42.9781C10.1111 42.7345 10.2991 42.4696 10.6581 42.1491C11.0171 41.8286 11.4103 41.4739 11.7863 41.1533C12.4658 40.5337 13.0684 39.6277 13.0684 39.2345C13.0684 38.9311 13.0684 38.8585 12.7863 38.8585C12.6538 38.8585 12.0684 39.2345 11.0769 39.9867C9.13022 41.3882 7.30342 42.9491 5.61538 44.6533C4.84615 45.4269 3.73504 46.5166 2.28632 47.9482C1.88888 48.3457 1.51281 48.7602 1.11965 49.1533C0.760678 49.4739 0.534182 49.6234 0.401703 49.5807C0.158113 49.4482 0.0256348 49.3157 0.0256348 49.2046C0.0256348 48.8286 1.08119 47.2858 3.17093 44.5551C3.59828 44.008 4.14957 43.2174 4.82478 42.1833C5.67948 40.9012 6.18375 40.1491 6.31196 39.961C5.89724 40.1989 5.51269 40.4859 5.16666 40.8157C4.88461 41.0978 4.58119 41.3585 4.31196 41.6405C3.98644 41.9569 3.6783 42.2908 3.38888 42.6405C3.05128 43.0337 2.80769 43.2217 2.65384 43.2217C2.58119 43.2217 2.52136 43.132 2.35469 43.1106C2.31623 43.1106 2.29914 43.0551 2.29914 42.9781C2.29914 42.6021 4.08546 40.7217 7.68375 37.3115C10.1496 34.9781 11.5983 33.8115 12.0513 33.8115C12.2564 33.8115 12.4273 34.0764 12.4273 34.2986C12.4273 34.5209 12.0299 35.0892 11.2222 35.9012C9.94016 37.1833 9.13247 38.038 8.7735 38.4653C7.83333 39.5764 6.85469 40.8585 5.81623 42.2687C5.14658 43.1499 4.53694 44.075 3.99145 45.038C4.84615 44.2089 6.30769 42.9012 8.35897 41.1405L11.1453 38.8884C12.047 38.2303 12.782 37.9098 13.3675 37.9098C13.7436 37.9098 13.9316 38.2687 13.9316 39.0038C13.9316 39.4311 13.6282 40.038 13.0085 40.8286C12.5479 41.476 11.9587 42.0215 11.2778 42.4311C11.4819 42.7222 11.5868 43.0714 11.5769 43.4269C11.5392 43.8562 11.4309 44.2764 11.2564 44.6704C11.0813 45.1331 10.8548 45.5746 10.5812 45.9867C10.9359 45.8157 11.5385 45.5593 12.3889 45.2345C14.0427 44.6704 14.8932 44.3798 14.953 44.3798C15.038 44.4463 15.0908 44.5457 15.0983 44.6533Z" fill="#00377B"/>
<path fill-rule="evenodd" clip-rule="evenodd" d="M24.188 47.4405C25.7521 46.7439 26.5256 46.2952 26.5256 46.1242C26.5428 46.0579 26.5284 45.9874 26.4866 45.9332C26.4449 45.8789 26.3804 45.8469 26.312 45.8465C26.2521 45.8465 25.4444 46.2012 23.8632 46.9362C23.281 47.196 22.6846 47.4228 22.0769 47.6157C21.7234 47.7487 21.3566 47.8433 20.9829 47.8977C20.7393 47.8977 20.6068 47.7823 20.6068 47.5559C20.6068 47.4832 20.7949 47.2567 21.1709 46.8977C21.4555 46.6032 21.7643 46.333 22.094 46.09C22.1111 46.09 22.5256 45.8465 23.3547 45.3379C23.6923 45.1285 23.8632 44.9618 23.8632 44.8294C23.8632 44.62 23.6923 44.5088 23.3376 44.5088C23.0179 44.5929 22.7176 44.7381 22.453 44.9362C21.7607 45.3294 21.1966 45.6328 20.7436 45.8379C19.9331 46.2766 19.0418 46.5456 18.1239 46.6285C17.7135 46.612 17.3131 46.4962 16.9573 46.2909C17.7308 45.5943 18.1239 45.0473 18.1239 44.6541C18.1239 44.4447 17.9786 44.2952 17.6966 44.2012C17.3494 44.1313 16.9947 44.1055 16.641 44.1242C17.2137 43.6242 18.1282 42.9106 19.3504 41.9875C19.3726 41.9875 19.5204 41.8833 19.7937 41.6907C19.9935 41.5499 20.2602 41.3619 20.594 41.1328C21.0812 40.8123 21.3291 40.6029 21.3291 40.5088C21.3291 40.2653 21.1581 40.1328 20.9701 40.1328C20.782 40.1328 20.235 40.449 19.3504 41.0729C18.4658 41.6969 17.6752 42.3165 16.9402 42.9362C15.9888 43.7445 15.0788 44.6003 14.2137 45.5003C13.3077 46.4576 12.8547 47.1157 12.8547 47.4362C12.8283 47.5984 12.8793 47.7637 12.9926 47.8828C13.1058 48.0019 13.2683 48.0612 13.4316 48.043C14.2051 48.043 15.0684 47.6285 16.047 46.8037C16.6281 47.1279 17.2833 47.2957 17.9487 47.2909C18.7465 47.2491 19.5293 47.0577 20.2564 46.7268C20.0472 47.0695 19.9186 47.4553 19.8803 47.855C19.8803 48.1755 20.4786 48.4789 20.8761 48.4789C21.5342 48.4789 22.6239 48.1371 24.188 47.4405ZM16.3034 44.9747C16.4316 45.0516 16.4915 45.1242 16.4701 45.2182C16.3606 45.5271 16.2218 45.8248 16.0556 46.1071C15.7526 46.4228 15.3968 46.6831 15.0043 46.8764C14.7144 47.0617 14.395 47.1961 14.0598 47.2738C13.8932 47.2738 13.7991 47.1969 13.7991 47.0687C13.7991 46.8208 14.1752 46.4106 14.9273 45.7866C15.6795 45.1627 16.1752 44.8977 16.3034 44.9747Z" fill="#00377B"/>
<path d="M33.9188 45.5387C33.9188 45.7481 32.735 46.2351 30.3803 47.0086C28.3291 47.6896 26.9558 48.0286 26.2607 48.0257C25.4316 48.0257 25.0171 47.6668 25.0171 46.9317C25.0171 46.2736 25.8077 45.4104 27.406 44.3676C28.4231 43.6881 29.141 43.3505 29.5427 43.3505C29.7376 43.3303 29.9325 43.3899 30.0829 43.5154C30.2334 43.6409 30.3268 43.8218 30.3419 44.0172C30.3001 44.1828 30.2228 44.3374 30.1154 44.4702C29.994 44.672 29.8176 44.8351 29.6068 44.9403C29.4402 44.9958 29.2308 44.8078 28.9701 44.4104C28.5118 44.6399 28.0654 44.8923 27.6325 45.1668C26.5385 45.9915 25.9957 46.577 25.9957 46.9146C25.9957 47.0685 26.2393 47.2351 26.4231 47.2351C26.9316 47.2351 28.1966 46.9146 30.2692 46.2565C32.406 45.5813 33.4487 45.2394 33.4701 45.2394C33.7607 45.2565 33.9188 45.3506 33.9188 45.5387Z" fill="#00377B"/>
<path fill-rule="evenodd" clip-rule="evenodd" d="M40.6795 45.8801C41.2991 45.7263 41.6026 45.5596 41.6026 45.3502C41.6026 45.2562 41.4872 45.2007 41.2906 45.2049C41.2137 45.2049 40.8932 45.2434 40.3291 45.3374C39.8804 45.4039 39.4279 45.441 38.9744 45.4485C38.6577 45.3974 38.3479 45.3099 38.0513 45.1878C38.2978 44.7788 38.4578 44.3236 38.5214 43.8502C38.4947 43.3699 38.1405 42.9714 37.6667 42.8887C37.2239 42.9313 36.7909 43.0453 36.3846 43.2263C35.7141 43.4784 35.0913 43.8425 34.5427 44.3032C33.2863 45.3759 32.4316 46.7306 32.4316 47.5596C32.4844 48.0246 32.8513 48.3915 33.3162 48.4442C34.1266 48.4159 34.9036 48.1148 35.5214 47.5895C36.1967 47.0337 36.8375 46.4371 37.4402 45.8032C37.8632 45.9842 38.3177 46.0801 38.7778 46.0853C39.4171 46.0834 40.0545 46.0147 40.6795 45.8801ZM36.4744 44.9742C36.5304 45.1784 36.5304 45.3939 36.4744 45.5981H36.4615C35.1239 46.9699 34.1453 47.6665 33.5769 47.6665C33.4444 47.6665 33.3675 47.5724 33.3675 47.3673C33.3675 46.9314 33.8205 46.2562 34.7051 45.3502C35.1275 44.9376 35.627 44.6123 36.1752 44.393C36.3438 44.5427 36.4504 44.7499 36.4744 44.9742Z" fill="#00377B"/>
<path d="M50.9574 46.3676C50.9574 46.4616 50.1668 46.8206 48.6027 47.4232C47.4626 47.9122 46.2468 48.2013 45.0086 48.2779C44.5026 48.2847 44.0423 47.9862 43.842 47.5215C43.6246 47.078 43.5203 46.5877 43.5386 46.0941C43.218 46.2608 42.7095 46.5215 41.9745 46.9189C41.6198 47.1283 41.2779 47.3163 40.9403 47.5215C40.6163 47.7022 40.2552 47.806 39.8847 47.8249C39.718 47.8249 39.6411 47.6369 39.6411 47.2608C39.6411 47.1668 39.8121 46.9787 40.1326 46.6753C40.4531 46.3719 40.7138 46.1539 41.0257 45.8804C43.0001 43.9403 44.0557 42.9787 44.2052 42.9787C44.4184 42.9932 44.5882 43.1629 44.6027 43.3762C44.6027 43.6198 43.9445 44.3334 42.6454 45.5386C42.983 45.4104 43.4146 45.2565 43.9274 45.0685C44.6967 44.5599 46.0172 43.7309 47.8591 42.624C48.389 42.3035 48.9146 42.0001 49.4232 41.6796C49.7644 41.4461 50.1475 41.2807 50.5514 41.1924C50.7608 41.1924 50.8719 41.2651 50.8719 41.4189C50.8719 41.5727 50.5343 41.795 49.8762 42.171C48.7266 42.8463 48.124 43.2052 48.0471 43.2608C46.5984 44.2052 45.4317 45.0129 44.5856 45.671C44.5856 45.9531 44.436 46.2565 44.436 46.5557C44.436 47.1027 44.8633 47.6497 45.2266 47.6497C45.7907 47.6497 46.8633 47.3847 48.4232 46.8591C49.9104 46.3505 50.6454 46.1069 50.6283 46.1069C50.8548 46.1069 50.9574 46.1967 50.9574 46.3676Z" fill="#00377B"/>
<path fill-rule="evenodd" clip-rule="evenodd" d="M57.9017 45.8801C58.5214 45.7263 58.8248 45.5596 58.8248 45.3502C58.8248 45.2562 58.7094 45.2007 58.5171 45.2049C58.4402 45.2049 58.1197 45.2434 57.5555 45.3374C57.1069 45.4039 56.6544 45.441 56.2008 45.4485C55.8842 45.3974 55.5744 45.3099 55.2778 45.1878C55.5243 44.7788 55.6843 44.3236 55.7479 43.8502C55.7212 43.3699 55.367 42.9714 54.8932 42.8887C54.4502 42.9304 54.0171 43.0445 53.6111 43.2263C52.9388 43.4773 52.3144 43.8416 51.765 44.3032C50.5085 45.3759 49.6538 46.7306 49.6538 47.5596C49.7066 48.0246 50.0735 48.3915 50.5385 48.4442C51.3488 48.4159 52.1258 48.1148 52.7436 47.5895C53.4189 47.0337 54.0597 46.4371 54.6624 45.8032C55.0854 45.9842 55.5399 46.0801 56 46.0853C56.6393 46.0834 57.2767 46.0147 57.9017 45.8801ZM53.6966 44.9742C53.7526 45.1784 53.7526 45.3939 53.6966 45.5981H53.6838C52.3461 46.9699 51.3675 47.6665 50.7991 47.6665C50.6667 47.6665 50.5897 47.5724 50.5897 47.3673C50.5897 46.9314 51.0427 46.2562 51.9273 45.3502C52.3505 44.9386 52.8498 44.6134 53.3974 44.393C53.5677 44.5414 53.6747 44.7493 53.6966 44.9742Z" fill="#00377B"/>
<path d="M63.6026 46.4233C63.6026 46.5942 63.0983 46.8763 62.0598 47.278C61.1674 47.6738 60.21 47.9027 59.235 47.9532C58.0128 47.9532 57.1838 47.4276 57.1838 46.8079C57.1838 46.1882 57.7137 45.4147 58.7479 44.5088C59.3483 43.9951 59.9837 43.5239 60.6496 43.0985C61.0131 42.8238 61.4206 42.6128 61.8547 42.4746C62.2479 42.4746 62.4573 42.6455 62.4573 42.966C62.4573 43.4361 61.9117 44.0572 60.8205 44.8293C60.1607 45.305 59.4681 45.7334 58.7479 46.1113C58.3889 46.3549 58.2009 46.5814 58.2009 46.7908C58.2009 47.107 58.5983 47.278 59.406 47.278C60.2013 47.2226 60.9802 47.0243 61.7051 46.6925C62.7009 46.2994 63.2094 46.1113 63.265 46.1113C63.4915 46.1241 63.6026 46.2182 63.6026 46.4233Z" fill="#00377B"/>
<path d="M86.6282 44.7482C86.6282 44.8806 86.1538 45.1456 85.235 45.5772C84.3803 45.9747 83.5256 46.3507 82.6923 46.7268C81.4316 47.308 80.188 47.8935 78.9273 48.4789C77.8171 48.9742 76.6211 49.2486 75.406 49.2866C75.1122 49.2601 74.8413 49.117 74.6538 48.8892C74.4443 48.7134 74.3097 48.4643 74.2778 48.1926C74.3434 47.8165 74.4569 47.4503 74.6154 47.1029C74.8206 46.5432 75.0857 46.0073 75.406 45.5046C74.4958 46.1858 73.526 46.7837 72.5085 47.2909C71.282 47.8935 70.3718 48.1926 69.7607 48.1926C69.4653 48.2025 69.1746 48.1171 68.9316 47.949C68.6224 47.7565 68.4423 47.4111 68.4615 47.0473C68.4615 46.6883 68.9103 46.0089 69.8333 44.9747L72.6026 41.8806C72 42.2012 71.0598 42.6712 69.7607 43.2952L68.141 44.0858C67.7755 44.3018 67.3724 44.4468 66.953 44.5131C66.7863 44.5131 66.5769 44.2311 66.5769 44.0601C66.5769 43.9661 66.953 43.7225 67.7265 43.3465C68.4017 43.0259 69.0812 42.6883 69.7607 42.3678C70.7564 41.8422 72.1111 41.1456 73.8632 40.2952C75.133 39.3788 76.3408 38.3795 77.4786 37.3037C79.3034 35.5516 80.359 34.667 80.6026 34.667C80.8462 34.667 80.9615 34.7781 80.9615 35.0046C80.9615 35.2311 80.6795 35.6627 80.1068 36.2097C79.4103 36.8294 78.735 37.4918 78.0385 38.09C77.3419 38.6883 76.2735 39.7439 74.953 41.0259C73.8077 42.1926 72.641 43.3593 71.4701 44.543C70.188 45.8806 69.5513 46.7268 69.5513 47.0687C69.5513 47.2738 69.5513 47.2567 70.1367 47.2567C70.9914 47.2567 72.2991 46.6926 74.0684 45.5473C75.8611 44.3845 77.5446 43.0614 79.0983 41.5943C79.9829 40.7824 81.1496 39.6157 82.5598 38.09C82.9872 37.6627 83.4829 37.1883 84.0299 36.7183C84.3178 36.4144 84.6617 36.1692 85.0427 35.996C85.2693 36.0262 85.4379 36.2205 85.4359 36.449C85.4359 36.6542 85.1709 36.9918 84.6282 37.4832C83.6667 38.3379 83.1795 38.7995 83.1581 38.8208L79.9957 42.0559C76.9273 45.1898 75.396 47.1485 75.4017 47.9319C75.4017 48.2524 75.5342 48.402 75.8291 48.402C76.8028 48.328 77.7574 48.0926 78.6538 47.7054C79.8205 47.2353 80.9872 46.7439 82.1538 46.2738C82.5812 46.1071 83.4145 45.7268 84.641 45.1456C85.1401 44.8685 85.6711 44.6533 86.2222 44.5046C86.4957 44.5046 86.6282 44.5815 86.6282 44.7482Z" fill="#00377B"/>
<path d="M93.1623 45.5383C93.1623 45.7477 91.9743 46.2349 89.6238 47.0084C87.5668 47.6893 86.1922 48.0283 85.4999 48.0255C84.6708 48.0255 84.2563 47.6665 84.2563 46.9314C84.2563 46.2733 85.0469 45.4101 86.6495 44.3673C87.6623 43.6878 88.3802 43.3502 88.7862 43.3502C88.9814 43.3374 89.1734 43.4043 89.3184 43.5356C89.4634 43.6668 89.5489 43.8513 89.5555 44.0468C89.5157 44.2132 89.4382 44.3682 89.329 44.4998C89.2069 44.6996 89.0325 44.8622 88.8247 44.9699C88.6537 45.0254 88.4443 44.8374 88.1837 44.44C87.8631 44.5938 87.4315 44.8374 86.8461 45.1964C85.7563 46.0212 85.2093 46.6066 85.2093 46.9443C85.2093 47.0981 85.4529 47.2648 85.6367 47.2648C86.1452 47.2648 87.4059 46.9443 89.4572 46.2861C91.5939 45.6109 92.6367 45.269 92.658 45.269C92.9871 45.2562 93.1623 45.3502 93.1623 45.5383Z" fill="#00377B"/>
<path d="M102.59 46.3677C102.59 46.4617 101.799 46.8207 100.235 47.4233C99.0948 47.9123 97.8791 48.2014 96.6409 48.278C96.1357 48.2786 95.6771 47.9824 95.47 47.5216C95.2559 47.0771 95.1532 46.5872 95.1708 46.0942C94.8503 46.2609 94.3418 46.5216 93.6067 46.919C93.252 47.1284 92.9102 47.3164 92.5725 47.5216C92.2484 47.7017 91.8874 47.8055 91.517 47.825C91.3503 47.825 91.2734 47.637 91.2734 47.2609C91.2734 47.1669 91.4443 46.9788 91.7649 46.6754C92.0854 46.372 92.346 46.1498 92.6495 45.8677C94.6238 43.9276 95.6794 42.966 95.829 42.966C96.0422 42.9805 96.2119 43.1502 96.2264 43.3634C96.2264 43.607 95.564 44.3207 94.2649 45.5258C94.6067 45.3976 95.0384 45.2438 95.5469 45.0558C96.3204 44.5472 97.6366 43.7182 99.4828 42.6113C100.009 42.2908 100.538 41.9874 101.047 41.6669C101.388 41.4334 101.771 41.268 102.175 41.1797C102.385 41.1797 102.496 41.2523 102.496 41.4062C102.496 41.56 102.158 41.7823 101.496 42.1583C100.35 42.8335 99.7478 43.1925 99.6708 43.2481C98.2221 44.1925 97.0554 45.0002 96.2093 45.6583C96.2093 45.9404 96.0554 46.2438 96.0554 46.5429C96.0554 47.0899 96.4828 47.637 96.846 47.637C97.4144 47.637 98.4871 47.372 100.047 46.8464C101.534 46.3378 102.269 46.0942 102.252 46.0942C102.474 46.107 102.59 46.1968 102.59 46.3677Z" fill="#00377B"/>
<path fill-rule="evenodd" clip-rule="evenodd" d="M109.816 45.8544C110.325 45.6535 110.585 45.5211 110.585 45.427C110.585 45.2561 110.474 45.1621 110.299 45.1792C109.667 45.3158 109.049 45.5118 108.453 45.7647C107.769 46.0076 107.171 46.2154 106.659 46.3932C106.1 46.5877 105.643 46.7463 105.291 46.8758C105.758 46.3642 106.254 45.8805 106.778 45.427C107.513 44.7647 107.868 44.3886 107.868 44.2775C107.868 44.0125 107.812 43.88 107.679 43.88C107.262 43.9849 106.867 44.1644 106.513 44.4099C106.278 44.551 106.037 44.6867 105.797 44.8223C105.557 44.958 105.316 45.0937 105.081 45.2347C104.404 45.6548 103.636 45.9069 102.842 45.9698C102.504 45.9698 102.333 45.8587 102.333 45.6493C102.408 45.4083 102.53 45.1847 102.692 44.9911C102.896 44.6731 103.143 44.3854 103.427 44.1364C103.56 44.0253 103.859 43.8159 104.312 43.5168C104.632 43.3159 104.782 43.2219 104.782 43.0894C104.782 42.957 104.688 42.9014 104.517 42.9014C104.097 42.9537 103.696 43.1094 103.35 43.3544C102.866 43.6373 102.432 43.9999 102.068 44.427C101.669 44.8122 101.415 45.3243 101.35 45.8758C101.359 46.1493 101.526 46.393 101.778 46.4997C102.015 46.6282 102.282 46.693 102.551 46.6877C103.244 46.6303 103.928 46.4868 104.585 46.2604C104.479 46.3582 104.376 46.453 104.276 46.5447C103.817 46.9662 103.428 47.3238 103.137 47.6151C102.252 48.4655 101.624 49.0681 101.197 49.4612C101.026 49.5766 100.141 50.0852 98.5426 51.004C97.6102 51.5387 96.7111 52.1295 95.8503 52.7732C94.8056 53.5384 93.8001 54.3557 92.8375 55.2219C90.8503 57.0723 89.9016 58.3544 89.9956 59.0681C90.0512 59.3501 90.2948 59.6706 90.5213 59.6706C91.1794 59.6706 92.064 59.1835 93.2136 58.1835C93.3084 58.0947 93.4035 58.0058 93.4987 57.9168C94.3297 57.1395 95.1717 56.352 95.9999 55.5852C96.0988 55.4945 96.1961 55.4054 96.2918 55.3178C98.1625 53.6044 99.4018 52.4693 99.9913 51.8758C101.325 50.5809 102.325 49.5809 102.983 48.9228C104.244 48.2647 105.239 47.7946 106.03 47.4356C106.536 47.206 107.041 46.9851 107.553 46.7617C107.841 46.6359 108.131 46.5094 108.423 46.38C108.534 46.3245 108.987 46.1535 109.816 45.8544ZM95.9785 53.5424C96.9527 52.7934 97.9992 52.1435 99.1025 51.6023C98.7093 52.1143 98.267 52.5866 97.7819 53.0125C97.4614 53.333 96.6879 54.0681 95.4657 55.1963C95.1974 55.4475 94.9295 55.6974 94.6622 55.9467C93.9885 56.5751 93.3189 57.1997 92.658 57.833C91.7349 58.6279 91.1153 59.0552 90.7948 59.0552C90.7008 59.0552 90.6623 58.9441 90.6623 58.8117C90.6623 58.6792 90.9315 58.2476 91.517 57.5894C92.1025 56.9313 92.7392 56.2518 93.4572 55.5723C94.2468 54.8349 95.0895 54.1564 95.9785 53.5424Z" fill="#00377B"/>
<path d="M117.521 45.5383C117.521 45.7477 116.338 46.2348 113.983 47.0083C111.932 47.6893 110.557 48.0283 109.859 48.0254C109.034 48.0254 108.62 47.6665 108.62 46.9314C108.62 46.2733 109.41 45.4101 111.009 44.3673C112.026 43.6864 112.738 43.3474 113.145 43.3502C113.341 43.3374 113.533 43.4041 113.679 43.5353C113.825 43.6665 113.911 43.8509 113.919 44.0468C113.877 44.2124 113.8 44.367 113.692 44.4998C113.569 44.7002 113.393 44.8628 113.184 44.9699C113.017 45.0254 112.808 44.8374 112.543 44.44C112.222 44.5938 111.791 44.8374 111.209 45.1964C110.115 46.0212 109.568 46.6066 109.568 46.9442C109.568 47.0981 109.816 47.2648 109.996 47.2648C110.504 47.2648 111.765 46.9442 113.821 46.2861C115.957 45.6109 117 45.269 117.017 45.269C117.346 45.2562 117.521 45.3502 117.521 45.5383Z" fill="#00377B"/>
<path d="M124.855 45.5383C124.855 45.7477 123.671 46.2348 121.316 47.0083C119.265 47.6893 117.89 48.0283 117.192 48.0254C116.363 48.0254 115.949 47.6665 115.949 46.9314C115.949 46.2733 116.744 45.4101 118.342 44.3673C119.359 43.6864 120.071 43.3474 120.479 43.3502C120.674 43.3374 120.867 43.4041 121.012 43.5353C121.158 43.6665 121.244 43.8509 121.252 44.0468C121.21 44.2124 121.133 44.367 121.026 44.4998C120.902 44.7002 120.727 44.8628 120.517 44.9699C120.346 45.0254 120.141 44.8374 119.876 44.44C119.556 44.5938 119.124 44.8374 118.538 45.1964C117.449 46.0212 116.902 46.6066 116.902 46.9442C116.902 47.0981 117.145 47.2648 117.329 47.2648C117.838 47.2648 119.098 46.9442 121.15 46.2861C123.286 45.6109 124.333 45.269 124.35 45.269C124.688 45.2562 124.855 45.3502 124.855 45.5383Z" fill="#00377B"/>
<path d="M140.009 46.1799C140.009 46.2739 139.803 46.4448 139.368 46.6884C138.961 46.9272 138.532 47.1234 138.085 47.2739C136.939 47.7089 135.733 47.9682 134.509 48.0431C133.906 48.0431 133.419 47.7055 133.419 47.1884C133.419 47.056 133.607 46.7611 133.983 46.3337C134.303 45.9961 134.624 45.6585 134.944 45.2995C133.936 45.4891 132.96 45.8185 132.043 46.2782C131.139 46.7522 130.202 47.1606 129.239 47.5004C128.957 47.5004 128.812 47.3508 128.812 47.0303C128.812 46.8636 129.056 46.5431 129.564 46.0901C130.073 45.6372 130.333 45.338 130.333 45.1884C130.333 45.0389 130.278 44.979 130.167 44.979C129.739 44.979 128.415 45.4876 126.175 46.5047C126.043 46.5602 125.462 46.8636 124.406 47.4064C123.992 47.6593 123.541 47.844 123.068 47.9534C122.825 47.9534 122.709 47.8038 122.709 47.5004C122.709 47.197 123.427 46.5431 124.876 45.432C126.325 44.3209 127.231 43.7568 127.624 43.7568C127.812 43.7568 127.906 43.8337 127.906 44.0004C127.906 44.0944 127.645 44.338 127.115 44.7525C126.713 45.034 126.341 45.3563 126.004 45.7141C126.026 45.7141 126.551 45.5431 127.624 45.1884C127.833 45.1286 128.479 44.885 129.543 44.4705C129.983 44.2821 130.445 44.1501 130.919 44.0773C131.577 44.0773 132.013 44.4705 131.936 44.979C131.901 45.2802 131.805 45.5711 131.654 45.8337C132.162 45.5901 133.009 45.2483 134.175 44.7995C134.951 44.503 135.76 44.3063 136.585 44.2141C136.85 44.2141 136.983 44.3636 136.983 44.6414C136.983 44.7568 136.774 44.9448 136.359 45.2055C135.972 45.4261 135.612 45.6915 135.286 45.9961C134.684 46.6372 134.385 47.0346 134.385 47.1671C134.385 47.2995 134.573 47.4107 134.949 47.4107C135.881 47.3398 136.8 47.1428 137.679 46.8252C138.128 46.6817 138.567 46.5119 138.996 46.3166C139.483 46.1115 139.748 45.9961 139.786 45.9961C139.936 46.0089 140.009 46.0688 140.009 46.1799Z" fill="#00377B"/>
<path fill-rule="evenodd" clip-rule="evenodd" d="M154.615 36.8801C155.432 36.0895 155.859 35.5639 155.859 35.316C155.855 34.85 155.512 34.4562 155.051 34.3887C154.62 34.3887 153.829 34.7477 152.662 35.4442C152.435 35.5901 151.835 35.9843 150.858 36.6269C150.461 36.8882 150.001 37.1905 149.479 37.534C148.236 38.3691 147.042 39.2737 145.902 40.2434L143.419 42.3331C143.392 42.3602 143.14 42.5462 142.665 42.8969C142.466 43.0444 142.227 43.221 141.949 43.4271C141.463 43.7815 141.01 44.1776 140.594 44.6109C140.423 44.7967 140.269 44.9652 140.13 45.1163C139.609 45.6845 139.314 46.0067 139.239 46.081C138.872 46.4715 138.646 46.9742 138.598 47.5083C138.625 47.6937 138.72 47.8626 138.863 47.9827C139.063 48.1947 139.341 48.3165 139.632 48.3203C140.312 48.2834 140.974 48.0966 141.573 47.7733L143.436 46.7562C143.995 47.1224 144.634 47.3482 145.299 47.4143C146.088 47.3714 146.87 47.2453 147.632 47.0383C148.632 46.7947 149.141 46.6237 149.141 46.5297C149.141 46.269 149.064 46.1365 148.915 46.1365C148.481 46.1936 148.053 46.2822 147.632 46.4015C146.998 46.5639 146.347 46.6514 145.692 46.6622C145.311 46.6916 144.931 46.5857 144.62 46.363C145.581 45.7049 146.068 45.1195 146.068 44.628C146.085 44.5226 146.052 44.4154 145.978 44.3382C145.904 44.2611 145.798 44.2229 145.692 44.2348C145.372 44.2348 144.846 44.534 144.128 45.1195C143.789 45.3741 143.474 45.6603 143.188 45.9742C142.678 46.2744 142.168 46.59 141.671 46.8975C141.581 46.9533 141.491 47.0088 141.402 47.0639C140.959 47.3731 140.449 47.5737 139.915 47.6494C139.744 47.6494 139.65 47.5554 139.65 47.3673C139.65 47.0853 140.197 46.3502 141.308 45.1622C141.729 44.7229 142.182 44.3144 142.662 43.94C142.941 43.7443 143.164 43.5806 143.344 43.4489C143.443 43.3764 143.528 43.3136 143.603 43.2605C143.812 43.1109 145.107 42.5083 147.5 41.4528C148.81 40.8998 150.074 40.2454 151.282 39.4955C152.466 38.7205 153.581 37.8455 154.615 36.8801ZM154.893 35.1665C154.966 35.1665 155.004 35.222 155.004 35.316H154.991C154.991 35.5254 154.521 36.0511 153.611 36.8759C152.747 37.6431 151.829 38.3472 150.863 38.9827C150.092 39.4687 149.287 39.8972 148.453 40.2648C148.038 40.4528 147.308 40.7519 146.252 41.1494C148.077 39.5895 149.282 38.5853 149.902 38.1579C152.709 36.1665 154.385 35.1665 154.893 35.1665Z" fill="#00377B"/>
<path fill-rule="evenodd" clip-rule="evenodd" d="M156.346 45.8801C156.966 45.7263 157.265 45.5596 157.265 45.3502C157.265 45.2562 157.137 45.2007 156.957 45.2049C156.88 45.2049 156.56 45.2434 155.996 45.3374C155.547 45.4039 155.095 45.441 154.641 45.4485C154.324 45.3974 154.015 45.3099 153.718 45.1878C153.964 44.7788 154.124 44.3236 154.188 43.8502C154.161 43.3699 153.807 42.9714 153.333 42.8887C152.891 42.9313 152.458 43.0453 152.051 43.2263C151.38 43.4764 150.757 43.8407 150.209 44.3032C148.953 45.3759 148.098 46.7306 148.098 47.5596C148.151 48.0246 148.518 48.3915 148.983 48.4442C149.793 48.4159 150.57 48.1148 151.188 47.5895C151.863 47.0337 152.504 46.4371 153.107 45.8032C153.53 45.9847 153.984 46.0805 154.444 46.0853C155.084 46.0834 155.721 46.0147 156.346 45.8801ZM152.137 44.9742C152.193 45.1784 152.193 45.3939 152.137 45.5981H152.111C150.774 46.9699 149.795 47.6665 149.239 47.6665C149.107 47.6665 149.03 47.5724 149.03 47.3673C149.03 46.9314 149.483 46.2562 150.368 45.3502C150.789 44.9386 151.287 44.6134 151.833 44.393C152.005 44.5407 152.114 44.7487 152.137 44.9742Z" fill="#00377B"/>
<path fill-rule="evenodd" clip-rule="evenodd" d="M175.248 42.7739C176.62 41.4064 177.355 40.2312 177.41 39.2696C177.504 37.9919 176.526 37.3508 174.491 37.338C173.357 37.4555 172.232 37.6511 171.124 37.9235C171.3 37.7403 171.495 37.5757 171.705 37.432C171.893 37.2995 171.987 37.1884 171.987 37.0944C171.987 36.8679 171.893 36.7568 171.705 36.7568C171.444 36.7568 170.709 37.1115 169.521 37.8295C168.643 38.3235 167.795 38.8701 166.983 39.4662C164.987 40.2183 163.252 40.9149 161.786 41.573C159.923 42.4021 158.979 43.0047 158.979 43.3807C158.997 43.5181 159.073 43.6411 159.188 43.7183C159.594 43.6358 159.978 43.4699 160.316 43.2312C160.792 42.9465 161.282 42.6883 161.786 42.4577C162.932 41.9491 163.782 41.556 164.291 41.3124C163.572 42.0071 162.922 42.7699 162.35 43.5901C161.654 44.5987 161.316 45.2995 161.316 45.7269C161.316 47.2525 162.145 48.026 163.782 48.026C166.009 47.9792 168.194 47.4114 170.162 46.3679C172.045 45.4603 173.764 44.2457 175.248 42.7739ZM174.504 38.197C175.88 38.197 176.556 38.6243 176.556 39.479H176.543C176.543 40.1713 175.846 41.1542 174.466 42.4149C173.011 43.6846 171.407 44.771 169.688 45.65C167.705 46.6671 165.979 47.197 164.56 47.2525C163.141 47.3081 162.423 46.9876 162.423 46.291C162.423 45.3978 162.983 44.3893 164.132 43.2611C164.453 42.9235 165.509 42.0389 167.278 40.6072C167.915 40.3126 168.548 40.0241 169.182 39.7352C169.725 39.4877 170.268 39.2399 170.816 38.9876C171.983 38.4884 173.235 38.22 174.504 38.197Z" fill="#00377B"/>
<path d="M185.748 45.6705C185.748 45.8799 185.013 46.2731 183.564 46.8586C182.503 47.3105 181.366 47.5584 180.214 47.5893C180.127 47.6004 180.039 47.5708 179.977 47.5091C179.914 47.4474 179.883 47.3604 179.893 47.2731C179.925 47.0165 180.03 46.7746 180.197 46.5765C180.419 46.2175 180.624 45.8799 180.872 45.5381C179.587 45.8743 178.324 46.2897 177.09 46.7817C176.808 46.8928 176.235 47.1577 175.38 47.5893C174.977 47.8358 174.53 48.0026 174.064 48.0808C173.821 48.0808 173.688 47.9697 173.688 47.7218C173.688 47.474 173.915 47.2517 174.346 46.8671C174.778 46.4825 175.201 46.1876 175.628 45.8287C176.483 45.0979 176.983 44.7005 177.094 44.6064C177.427 44.3006 177.838 44.0921 178.282 44.0039C178.564 44.0039 178.709 44.1534 178.709 44.4312C178.709 44.5252 178.521 44.7346 178.124 45.0552C177.771 45.3325 177.455 45.6543 177.184 46.0124C177.543 45.9184 178.521 45.5851 180.12 45.0338C180.908 44.7012 181.729 44.4492 182.568 44.2817C182.889 44.2817 183.038 44.3757 183.038 44.5851C183.038 44.7175 182.735 45.0722 182.115 45.6577C181.772 45.9402 181.462 46.2614 181.192 46.615C181.192 46.7304 181.308 46.7859 181.513 46.7859C182.214 46.659 182.901 46.4629 183.564 46.2005C183.774 46.1278 184.15 45.9782 184.692 45.7304C184.945 45.5908 185.22 45.4954 185.504 45.4483C185.675 45.444 185.748 45.521 185.748 45.6705Z" fill="#00377B"/>
<path d="M201.167 46.1794C201.167 46.2734 200.957 46.4443 200.526 46.6879C200.119 46.926 199.69 47.1221 199.244 47.2733C198.097 47.7079 196.891 47.9673 195.667 48.0426C195.064 48.0426 194.573 47.705 194.573 47.1879C194.573 47.0555 194.765 46.7606 195.141 46.3332C195.462 45.9956 195.778 45.658 196.098 45.299C195.092 45.4887 194.116 45.8181 193.201 46.2777C192.297 46.7517 191.36 47.1601 190.397 47.4999C190.111 47.4999 189.97 47.3503 189.97 47.0298C189.97 46.8631 190.214 46.5426 190.722 46.0896C191.231 45.6367 191.496 45.3375 191.496 45.1879C191.496 45.0384 191.44 44.9785 191.325 44.9785C190.912 44.9785 189.581 45.4871 187.333 46.5042C187.205 46.5597 186.62 46.863 185.564 47.4058C185.138 47.6612 184.673 47.8446 184.188 47.9486C183.94 47.9486 183.829 47.799 183.829 47.4956C183.829 47.1922 184.543 46.5384 185.996 45.4272C187.449 44.3161 188.346 43.752 188.744 43.752C188.932 43.752 189.026 43.829 189.026 43.9956C189.026 44.0896 188.761 44.3331 188.235 44.7477C187.832 45.0279 187.459 45.3503 187.124 45.7093C187.124 45.7093 187.671 45.5384 188.744 45.1837C188.949 45.1238 189.598 44.8802 190.662 44.4657C191.102 44.2763 191.565 44.1442 192.038 44.0725C192.697 44.0725 193.128 44.4657 193.056 44.9743C193.018 45.2753 192.92 45.5658 192.769 45.829C193.278 45.5854 194.128 45.2435 195.295 44.7948C196.07 44.4982 196.88 44.3015 197.705 44.2093C197.966 44.2093 198.098 44.3589 198.098 44.6367C198.098 44.752 197.893 44.9401 197.479 45.2008C197.091 45.4203 196.731 45.6857 196.406 45.9914C195.803 46.6324 195.5 47.0298 195.5 47.1623C195.5 47.2948 195.688 47.4058 196.064 47.4058C196.997 47.3357 197.915 47.1389 198.795 46.8204C199.243 46.6776 199.683 46.5078 200.111 46.3119C200.603 46.1067 200.868 45.9914 200.902 45.9914C201.09 46.0084 201.167 46.0683 201.167 46.1794Z" fill="#00377B"/>
<path d="M211.141 46.1541C211.141 46.3806 210.521 46.7182 209.295 47.1499C208.587 47.4426 207.837 47.6214 207.073 47.6798C206.617 47.6999 206.163 47.6012 205.756 47.3935C205.516 47.2457 205.295 47.0691 205.098 46.8678C204.552 47.1643 203.98 47.4103 203.389 47.6029C202.642 47.7753 201.877 47.8514 201.111 47.8294C200.469 47.8537 199.926 47.3597 199.889 46.7182C199.889 46.4362 200.397 45.8635 201.393 44.9661C202.389 44.0687 203.03 43.6841 203.389 43.5943C203.56 43.5559 203.632 43.667 203.632 43.949C203.632 44.0644 203.184 44.496 202.299 45.2695C201.415 46.043 200.962 46.5088 200.962 46.7182C200.962 46.9276 201.188 47.0559 201.658 47.0559C203.013 47.0162 204.325 46.5695 205.423 45.7738C205.667 45.6029 206.192 45.2054 206.966 44.5858C207.257 44.3043 207.603 44.0861 207.983 43.9447C208.171 43.9447 208.265 44.0772 208.265 44.3422C208.254 44.7397 208.068 45.112 207.756 45.3593C207.46 45.587 207.152 45.7995 206.833 45.996C206.496 46.2054 206.325 46.3935 206.325 46.5259C206.325 46.8806 206.628 47.0516 207.209 47.0516C207.821 46.9785 208.422 46.8351 209 46.6242C209.205 46.5687 209.564 46.4191 210.111 46.1969C210.365 46.0821 210.63 45.9947 210.902 45.9362C211.064 45.9747 211.141 46.0302 211.141 46.1541Z" fill="#00377B"/>
<path d="M220.778 46.3677C220.778 46.4617 219.987 46.8207 218.427 47.4233C217.286 47.9123 216.069 48.2014 214.829 48.278C214.323 48.2836 213.864 47.9855 213.662 47.5216C213.447 47.0775 213.343 46.5876 213.359 46.0942C213.043 46.2609 212.534 46.5216 211.799 46.919C211.44 47.1284 211.103 47.3164 210.765 47.5216C210.441 47.7017 210.08 47.8055 209.709 47.825C209.538 47.825 209.466 47.637 209.466 47.2609C209.466 47.1669 209.632 46.9788 209.953 46.6754C210.273 46.372 210.538 46.1498 210.838 45.8677C212.816 43.9276 213.868 42.966 214.021 42.966C214.233 42.9825 214.4 43.1517 214.415 43.3634C214.415 43.607 213.756 44.3207 212.457 45.5258C212.795 45.3976 213.231 45.2438 213.739 45.0558C214.513 44.5472 215.829 43.7182 217.675 42.6113C218.201 42.2908 218.726 41.9874 219.235 41.6669C219.578 41.433 219.962 41.2676 220.368 41.1797C220.573 41.1797 220.688 41.2523 220.688 41.4062C220.688 41.56 220.346 41.7823 219.688 42.1583C218.538 42.8335 217.936 43.1925 217.863 43.2481C216.415 44.1925 215.244 45.0002 214.397 45.6583C214.397 45.9404 214.248 46.2438 214.248 46.5429C214.248 47.0899 214.675 47.637 215.038 47.637C215.603 47.637 216.675 47.372 218.239 46.8464C219.726 46.3378 220.462 46.0942 220.44 46.0942C220.667 46.107 220.778 46.1968 220.778 46.3677Z" fill="#00377B"/>
<path d="M230.718 46.1541C230.718 46.3806 230.094 46.7182 228.872 47.1499C228.164 47.4426 227.414 47.6214 226.65 47.6798C226.193 47.7003 225.74 47.6016 225.333 47.3935C225.093 47.2468 224.871 47.0702 224.675 46.8678C224.129 47.1635 223.556 47.4095 222.966 47.6029C222.219 47.7753 221.454 47.8514 220.688 47.8294C220.044 47.8561 219.498 47.3614 219.462 46.7182C219.462 46.4362 219.97 45.8635 220.97 44.9661C221.97 44.0687 222.607 43.6841 222.966 43.5943C223.132 43.5559 223.209 43.667 223.209 43.949C223.209 44.0644 222.756 44.496 221.872 45.2695C220.987 46.043 220.534 46.5088 220.534 46.7182C220.534 46.9276 220.761 47.0559 221.231 47.0559C222.587 47.0157 223.9 46.5691 225 45.7738C225.244 45.6029 225.769 45.2054 226.543 44.5858C226.833 44.3034 227.18 44.0851 227.56 43.9447C227.748 43.9447 227.842 44.0772 227.842 44.3422C227.831 44.7397 227.645 45.112 227.333 45.3593C227.201 45.4704 226.906 45.6798 226.41 45.996C226.073 46.2054 225.902 46.3935 225.902 46.5259C225.902 46.8806 226.201 47.0516 226.786 47.0516C227.398 46.9785 227.998 46.8351 228.577 46.6242C228.782 46.5687 229.141 46.4191 229.684 46.1969C229.938 46.0827 230.202 45.9954 230.474 45.9362C230.641 45.9747 230.718 46.0302 230.718 46.1541Z" fill="#00377B"/>
<path d="M19.5469 3.45728H7.93156V11.9145H19.205V14.906H7.93156V25.9615H19.5469V28.953H4.77344V0.46582H19.5469V3.45728Z" fill="#00377B"/>
<path fill-rule="evenodd" clip-rule="evenodd" d="M31.2949 11.2305C32.2308 11.2305 33.7692 11.2732 35.0086 12.2561C36.0154 13.0625 36.5838 14.2959 36.5427 15.5852C36.5887 17.029 35.8518 18.3852 34.6154 19.1322C35.4494 19.3205 36.2162 19.7328 36.8333 20.3245C37.7763 21.2061 38.2908 22.4532 38.2436 23.7433C38.295 25.2985 37.6207 26.7892 36.4188 27.7775C35.3462 28.5894 33.641 28.9741 32.2308 28.9741H24.5898V11.2305H31.2949ZM30.906 18.4484C31.5958 18.46 32.2756 18.2826 32.8718 17.9356C33.4475 17.5057 33.7687 16.8153 33.7265 16.098C33.7523 15.4196 33.43 14.775 32.8718 14.3886C32.1973 13.9561 31.4528 13.9583 30.5973 13.9609C30.5313 13.961 30.4647 13.9612 30.3974 13.9612H27.6624V18.4484H30.906ZM34.2393 25.6236C33.4701 26.1792 32.3162 26.2219 31.4615 26.2219H27.6624V21.0083H31.5898C32.4445 21.0083 33.5983 21.051 34.3675 21.6493C34.9637 22.1421 35.2956 22.885 35.265 23.6578C35.2387 24.4347 34.8615 25.1577 34.2393 25.6236Z" fill="#00377B"/>
<path fill-rule="evenodd" clip-rule="evenodd" d="M78.2777 0C70.0854 0 63.4614 6.23504 63.4614 14.735C63.4614 23.188 70.0341 29.4872 78.2777 29.4872C86.5213 29.4872 93.0982 23.235 93.0982 14.735C93.0982 6.23504 86.47 0 78.2777 0ZM78.282 26.3077C71.8906 26.3077 66.7093 21.1264 66.7093 14.735C66.7093 8.34365 71.8906 3.16239 78.282 3.16239C84.6734 3.16239 89.8546 8.34365 89.8546 14.735C89.8546 21.1264 84.6734 26.3077 78.282 26.3077Z" fill="#00377B"/>
<path fill-rule="evenodd" clip-rule="evenodd" d="M112.192 0C103.991 0 97.3718 6.23504 97.3718 14.735C97.3718 23.188 103.953 29.4872 112.192 29.4872C120.432 29.4872 127.009 23.235 127.009 14.735C127.009 6.23504 120.393 0 112.192 0ZM106.34 24.9424C102.727 22.8254 100.539 18.9218 100.62 14.735C100.539 10.5483 102.727 6.64468 106.34 4.52773C109.953 2.41078 114.428 2.41078 118.041 4.52773C121.654 6.64468 123.841 10.5483 123.761 14.735C123.841 18.9218 121.654 22.8254 118.041 24.9424C114.428 27.0593 109.953 27.0593 106.34 24.9424Z" fill="#00377B"/>
<path d="M143.944 11.2305V28.9527H140.872V14.0467H132.752V28.9527H129.679V11.2305H143.944Z" fill="#00377B"/>
<path d="M155.812 14.0467V28.9527H152.739V14.0467H147.184V11.2305H161.368V14.0467H155.812Z" fill="#00377B"/>
<path d="M167.688 11.2308V22.9316L179.816 9.86328V28.953H176.744V17.1239L164.615 30.1923V11.2308H167.688Z" fill="#00377B"/>
<path d="M188.701 11.2305V18.4954L195.876 11.2305H199.632L191.94 19.1322L200.568 28.9612H196.581L189.641 21.1792L188.701 22.0766V28.9527H185.628V11.2305H188.701Z" fill="#00377B"/>
<path fill-rule="evenodd" clip-rule="evenodd" d="M220.303 11.2309H217.231V13.7651C215.806 11.8593 213.546 10.762 211.167 10.8206C206.637 10.8206 202.538 13.983 202.538 20.0856C202.538 26.3249 206.679 29.4873 211.167 29.4873C213.549 29.5117 215.8 28.4009 217.231 26.4958V28.9531H220.303V11.2309ZM211.509 26.748C207.838 26.748 205.701 23.8847 205.701 20.0856C205.701 15.7565 208.479 13.5386 211.509 13.5557C214.244 13.5557 217.397 15.5599 217.397 20.1326C217.397 23.6326 215.265 26.748 211.509 26.748Z" fill="#00377B"/>
<path d="M88.0085 6.40991C88.0085 6.40991 88.2991 5.91419 90.6325 4.50393C93.2222 2.93556 94.2436 3.22188 96.265 3.47402C98.2863 3.72615 101.47 6.82017 101.47 6.82017" stroke="#00377B" stroke-width="2.5641"/>
<path fill-rule="evenodd" clip-rule="evenodd" d="M46.0298 13.7049C47.4922 11.8501 49.7321 10.7783 52.0939 10.8032C57.6409 10.8032 60.7178 15.4143 60.7178 20.222C60.7178 25.0895 57.6025 29.487 52.2221 29.487C49.7965 29.5464 47.491 28.4326 46.0298 26.4955V36.3588L42.9529 38.7519V11.2306H46.0298V13.7049ZM45.8589 20.1536C45.8589 23.7861 48.1623 26.7306 51.7948 26.7306C55.3802 26.7306 57.5597 23.7434 57.5597 20.2007C57.5597 15.8417 54.6153 13.5383 51.752 13.5383C48.8888 13.5383 45.8589 15.8801 45.8589 20.1536Z" fill="#00377B"/>
</g>
<defs>
<clipPath id="clip0_1013_360">
<rect width="231" height="60" fill="white"/>
</clipPath>
</defs>
</svg>
