<svg width="328" height="58" viewBox="0 0 328 58" fill="none" xmlns="http://www.w3.org/2000/svg">
<path fill-rule="evenodd" clip-rule="evenodd" d="M17.1834 55.0386C17.1153 55.0621 17.0473 55.0856 16.9768 55.109C16.2727 55.3437 15.5804 55.4986 14.8997 55.5667C11.2994 55.9235 6.5959 55.0621 5.74862 50.2014H12.3297L13.4117 49.7531V48.4153C12.9235 48.2017 12.5715 47.9881 12.3532 47.7651C12.1373 47.5516 11.973 47.2723 11.8603 46.946C11.7523 46.6198 11.6702 46.1739 11.6209 45.6153C11.5716 45.0543 11.5505 44.1718 11.5505 42.9795C11.9706 42.9725 12.4119 42.9842 12.8719 43.0124C12.886 43.0124 12.8977 43.0124 12.9071 43.0077L13.9891 42.5594C14.1275 42.5031 14.0172 42.0243 13.8412 42.0055C11.7969 41.7779 10.0179 41.9586 8.58384 42.5524L7.50186 43.0007C5.1689 43.9653 3.7466 46.0213 3.5823 49.1687C3.34291 53.7078 6.48324 57.2284 12.7616 57.2284C14.2942 57.2284 15.8573 56.8599 17.4064 56.2192L18.4883 55.7709C18.5306 55.7521 18.5728 55.7333 18.6151 55.7169C18.6526 55.7005 18.6902 55.6841 18.7277 55.6676C23.5744 53.5717 28.2567 48.8377 31.4158 44.3549L35.8376 38.0789L49.8495 16.1717L49.88 47.1408C49.88 47.683 49.8589 48.0843 49.8213 48.3402C49.7884 48.5913 49.7251 48.7908 49.6382 48.9363C49.5842 49.0325 49.5115 49.117 49.4223 49.1921L48.4483 49.5958V50.1967H52.9123L53.9943 49.7484V49.1475C53.4897 49.0185 53.1517 48.8753 52.9804 48.7133C52.8091 48.5537 52.6964 48.3284 52.6424 48.0374L52.5814 47.6619L52.5955 47.6572L52.6401 12.9046C52.6518 12.292 53.0696 11.8015 53.7244 11.4306C53.7432 11.426 53.762 11.4189 53.7784 11.4142L54.8604 10.9659L54.8487 10.1187L50.7155 10.2665L49.6335 10.7148L34.2487 36.3163L29.2307 43.5874C25.7149 48.6852 21.3799 53.0906 17.2327 55.0151C17.2162 55.0222 17.1998 55.0269 17.181 55.0339L17.1834 55.0386ZM3.82874 1.73034C3.84752 1.7186 3.86629 1.70687 3.88272 1.69513C4.00712 1.61064 4.13855 1.52849 4.27703 1.45339C4.28641 1.4487 4.2958 1.444 4.30519 1.43931C4.82389 1.2844 5.4036 1.18113 6.04904 1.14358C8.65895 0.988676 11.9894 4.00462 10.6751 6.72718C10.323 4.94109 8.94528 4.18769 7.75534 4.67822L6.67335 5.1265C6.52549 5.18753 6.38232 5.26733 6.2415 5.36825C4.82154 6.38686 5.6829 9.13759 8.03933 9.2925C8.55098 9.32536 9.02743 9.24321 9.45459 9.06483L10.5366 8.61655C12.0715 7.9805 12.9728 6.14981 12.7029 4.30974C12.3062 1.85708 9.61184 -0.389035 6.22507 0.0569019C5.62657 0.136701 5.07502 0.284565 4.5751 0.491104L3.49312 0.939388C-1.89334 3.16907 -1.40985 12.1324 7.47369 12.8154V42.5524L7.72013 42.4515C8.54159 42.1323 9.56725 41.9257 10.4662 41.8717L11.5482 41.4235V19.3777C11.5482 16.1951 11.5528 13.3693 11.473 10.1304L10.3911 10.5787C10.1751 10.7031 9.96155 10.8157 9.75032 10.919C2.85942 13.313 -0.560218 4.78618 3.8264 1.72799L3.82874 1.73034ZM14.1956 49.6029L15.1814 49.1945C15.1908 49.1851 15.2025 49.1781 15.2095 49.1687C15.3809 49.0091 15.4935 48.7838 15.5475 48.4927C15.5663 48.3871 15.5804 48.258 15.5944 48.1102L15.5498 13.3599C15.5334 12.4422 14.604 11.7968 13.3296 11.4236L13.3413 10.5763L14.4233 10.128L18.5564 10.2759L33.9952 36.3961L32.58 38.3981L31.498 38.8464L18.3405 16.7537L18.31 46.7043C18.31 47.2465 18.3311 47.6478 18.3686 47.9036C18.4015 48.1548 18.4649 48.3543 18.5517 48.4998C18.6362 48.6453 18.7606 48.772 18.9272 48.8683C19.0939 48.9692 19.3661 49.0654 19.7417 49.1593V49.7601L18.6597 50.2084H14.1956V49.6076V49.6029ZM7.47604 44.0568C6.17109 45.1365 5.5632 46.7583 5.61484 48.8354C5.61484 48.8448 5.61484 48.8542 5.61719 48.8636C6.27905 48.5749 6.71795 48.2604 6.94091 47.8966C7.16388 47.5422 7.30705 47.0399 7.37512 46.3898C7.43849 45.7866 7.47369 45.0754 7.47839 44.0545L7.47604 44.0568Z" fill="#354347"/>
<path fill-rule="evenodd" clip-rule="evenodd" d="M8.55847 43.1422C9.55596 42.9192 10.5534 42.6962 11.5509 42.4756V42.607V42.9497C11.5509 44.1584 11.5721 45.0526 11.6214 45.6183C11.6706 46.1769 11.7528 46.6228 11.8607 46.9491C11.9758 47.2753 12.1377 47.5522 12.3536 47.7682C12.5719 47.9911 12.924 48.2047 13.4121 48.4183V49.7561H6.69727V48.4183C7.35913 48.1296 7.80037 47.8151 8.021 47.4513C8.24396 47.0969 8.38713 46.5946 8.4552 45.9445C8.52326 45.2944 8.55847 44.5175 8.55847 43.3628V43.1445V43.1422Z" fill="#7A9CA5"/>
<path fill-rule="evenodd" clip-rule="evenodd" d="M8.55834 42.1064C9.41266 41.7286 10.5604 41.4845 11.5508 41.4258V19.3801C11.5508 16.1975 11.5555 13.3716 11.4757 10.1327C2.07347 15.5215 -2.3108 1.25389 7.13369 0.695296C10.159 0.516921 14.1584 4.59607 10.7622 7.54161C10.7153 4.91997 8.74845 3.899 7.32849 4.91762C5.90853 5.93623 6.76989 8.68696 9.12632 8.84187C11.4827 8.99912 13.0529 6.65912 12.7079 4.30974C12.3113 1.85708 9.61685 -0.389035 6.23008 0.0569019C-0.825121 0.986329 -1.14901 11.6208 8.56068 12.3695V19.3801C8.56068 26.9563 8.56068 34.5325 8.56068 42.1064H8.55834Z" fill="#7A9CA5"/>
<path d="M18.3105 46.6999C18.3105 47.242 18.3317 47.6434 18.3692 47.8992C18.4021 48.1503 18.4654 48.3498 18.5523 48.4954C18.6368 48.6409 18.7612 48.7676 18.9278 48.8638C19.0944 48.9648 19.3667 49.061 19.7422 49.1549V49.7557H15.2782V49.1549C15.7828 49.0258 16.1208 48.8826 16.2921 48.7207C16.4634 48.5611 16.5761 48.3358 16.6301 48.0447C16.6793 47.7514 16.7099 47.3007 16.7099 46.6999C16.7099 27.6349 18.3082 36.2297 18.3082 46.6999H18.3105ZM14.4121 10.9733L14.4238 10.126C15.8016 10.1753 17.1793 10.2246 18.557 10.2739L33.9958 36.394L32.5805 38.3961L18.3434 14.4891C18.3317 25.0649 18.3223 35.6383 18.3105 46.2117L16.6793 47.6622C16.6653 36.0772 16.6488 24.4946 16.6348 12.9096C16.6183 11.9919 15.6889 11.3464 14.4145 10.9733H14.4121Z" fill="#5C8692"/>
<path d="M50.9598 46.6999C50.9598 47.2421 50.9387 47.6434 50.9011 47.8992C50.8683 48.1504 50.8049 48.3498 50.7181 48.4954C50.6336 48.6409 50.5092 48.7676 50.3425 48.8639C50.1759 48.9648 49.9037 49.061 49.5281 49.1549V49.7557H53.9922V49.1549C53.4876 49.0258 53.1496 48.8826 52.9783 48.7207C52.8069 48.5611 52.6943 48.3358 52.6403 48.0447C51.5794 41.8744 50.9622 22.4526 50.9622 46.6999H50.9598ZM54.8582 10.9733L54.8465 10.126C53.4688 10.1753 52.0911 10.2246 50.7134 10.2739L35.3285 35.8753L35.0093 36.3377L35.8355 38.0839L50.927 14.4891C50.9387 25.0649 50.9575 43.3061 50.9598 46.2117L52.591 47.6622C52.6051 36.0772 52.6215 24.4946 52.6356 12.9096C52.652 11.9919 53.5815 11.3464 54.8559 10.9733H54.8582ZM13.9541 42.5691C14.1442 42.5808 14.0315 42.0316 13.8414 42.0105C8.47608 41.4097 4.92971 43.6393 4.66214 48.7254C4.42274 53.2645 7.56308 56.7851 13.8414 56.7851C20.2606 56.7851 27.1961 50.3472 31.4137 44.3599L35.8355 38.0839L35.0093 36.3377L30.3129 43.1465C25.8113 49.6712 19.9695 55.0647 14.8999 55.5693C10.9851 55.9589 5.76056 54.9098 5.61269 48.838C5.50942 44.5735 8.17331 42.217 13.9517 42.5691H13.9541Z" fill="#5C8692"/>
<path d="M70.3345 24.2345H71.8573V29.7702L77.7429 24.2345H79.739L72.6393 30.8608L80.2947 39.0101H78.3397L71.8573 32.1162V39.0101H70.3345V24.2345ZM94.4698 39.0101H92.8646L87.9669 26.992L82.9868 39.0101H81.3816L87.8022 23.6377H88.1315L94.4698 39.0101ZM108.569 39.0101H107.026V27.6917L97.2921 39.0101H96.9629V24.2345H98.4445V35.7586L108.24 24.2345H108.569V39.0101ZM112.155 24.2345H113.657V30.4287H121.168V24.2345H122.65V39.0101H121.168V31.8692H113.657V39.0101H112.155V24.2345ZM137.85 39.0101H136.306V27.6917L126.573 39.0101H126.243V24.2345H127.725V35.7586L137.52 24.2345H137.85V39.0101ZM141.456 24.2345H142.979V29.7702L148.864 24.2345H150.86L143.761 30.8608L151.416 39.0101H149.461L142.979 32.1162V39.0101H141.456V24.2345ZM159.664 23.6377L166.558 39.0101H164.974L162.648 33.9683H156.269L153.964 39.0101H152.318L159.294 23.6377H159.664ZM159.479 26.9097L156.948 32.466H161.99L159.479 26.9097Z" fill="#5C8692"/>
<path d="M173.333 39.0095L175.432 24.2339H175.658L181.667 36.3548L187.635 24.2339H187.862L189.981 39.0095H188.52L187.08 28.4319L181.853 39.0095H181.482L176.193 28.3496L174.753 39.0095H173.333ZM204.529 39.0095H202.986V27.6911L193.252 39.0095H192.923V24.2339H194.405V35.758L204.2 24.2339H204.529V39.0095ZM207.354 24.2339H209.082L212.622 29.9959L216.202 24.2339H217.91L213.507 31.3953L218.199 39.0095H216.47L212.622 32.8152L208.773 39.0095H207.045L211.757 31.3953L207.354 24.2339ZM226.726 23.6371L233.62 39.0095H232.035L229.71 33.9677H223.33L221.026 39.0095H219.379L226.355 23.6371H226.726ZM226.541 26.9091L224.01 32.4654H229.051L226.541 26.9091ZM238.173 20.6943H239.49C239.942 21.394 240.704 21.7438 241.774 21.7438C242.762 21.7438 243.502 21.394 243.996 20.6943H245.293C245.128 21.3528 244.723 21.8742 244.079 22.2583C243.448 22.6287 242.679 22.8139 241.774 22.8139C240.841 22.8139 240.052 22.6287 239.407 22.2583C238.762 21.8742 238.351 21.3528 238.173 20.6943ZM247.536 39.0095H245.993V27.6911L236.259 39.0095H235.929V24.2339H237.411V35.758L247.207 24.2339H247.536V39.0095ZM263.119 39.0095H261.514L256.616 26.9914L251.636 39.0095H250.031L256.451 23.6371H256.781L263.119 39.0095ZM264.954 31.6834C264.954 30.2429 265.296 28.9258 265.982 27.7323C266.668 26.525 267.608 25.5783 268.802 24.8924C269.995 24.2064 271.278 23.8634 272.65 23.8634C274.886 23.8634 276.759 24.6111 278.268 26.1065C279.777 27.5882 280.532 29.4266 280.532 31.6217C280.532 33.021 280.189 34.3244 279.503 35.5316C278.817 36.7252 277.877 37.665 276.683 38.3509C275.49 39.0369 274.187 39.3799 272.773 39.3799C271.333 39.3799 270.009 39.0438 268.802 38.3715C267.608 37.6856 266.668 36.7527 265.982 35.5728C265.296 34.3792 264.954 33.0828 264.954 31.6834ZM278.988 31.6217C278.988 29.8656 278.378 28.3771 277.157 27.1561C275.949 25.9213 274.468 25.304 272.712 25.304C270.997 25.304 269.529 25.9213 268.308 27.1561C267.101 28.3771 266.497 29.8862 266.497 31.6834C266.497 33.4395 267.094 34.9211 268.287 36.1284C269.495 37.3357 270.969 37.9394 272.712 37.9394C274.495 37.9394 275.984 37.3289 277.177 36.1079C278.385 34.8868 278.988 33.3914 278.988 31.6217ZM283.518 24.2339H286.441C288.293 24.2339 289.541 24.6043 290.186 25.3451C290.845 26.086 291.174 26.9091 291.174 27.8146C291.174 28.4868 291.009 29.1042 290.68 29.6667C290.351 30.2292 289.884 30.6545 289.281 30.9426C290.296 31.2718 291.064 31.7657 291.585 32.4242C292.12 33.0828 292.388 33.8648 292.388 34.7702C292.388 35.9775 291.942 36.9859 291.05 37.7953C290.159 38.6047 289.006 39.0095 287.593 39.0095H283.518V24.2339ZM284.98 25.6744V30.4075H285.823C288.375 30.4075 289.651 29.5569 289.651 27.8557C289.651 26.4015 288.663 25.6744 286.688 25.6744H284.98ZM284.98 31.8892V37.5689H286.811C287.867 37.5689 288.643 37.4661 289.137 37.2603C289.644 37.0408 290.056 36.7115 290.371 36.2725C290.687 35.8197 290.845 35.3259 290.845 34.7908C290.845 33.803 290.426 33.0759 289.589 32.6094C288.766 32.1293 287.504 31.8892 285.803 31.8892H284.98ZM294.656 31.6834C294.656 30.2429 294.999 28.9258 295.685 27.7323C296.371 26.525 297.311 25.5783 298.504 24.8924C299.698 24.2064 300.981 23.8634 302.353 23.8634C304.589 23.8634 306.462 24.6111 307.971 26.1065C309.48 27.5882 310.234 29.4266 310.234 31.6217C310.234 33.021 309.891 34.3244 309.205 35.5316C308.519 36.7252 307.58 37.665 306.386 38.3509C305.193 39.0369 303.889 39.3799 302.476 39.3799C301.036 39.3799 299.712 39.0438 298.504 38.3715C297.311 37.6856 296.371 36.7527 295.685 35.5728C294.999 34.3792 294.656 33.0828 294.656 31.6834ZM308.691 31.6217C308.691 29.8656 308.08 28.3771 306.859 27.1561C305.652 25.9213 304.17 25.304 302.414 25.304C300.699 25.304 299.232 25.9213 298.011 27.1561C296.803 28.3771 296.2 29.8862 296.2 31.6834C296.2 33.4395 296.796 34.9211 297.99 36.1284C299.197 37.3357 300.672 37.9394 302.414 37.9394C304.198 37.9394 305.686 37.3289 306.88 36.1079C308.087 34.8868 308.691 33.3914 308.691 31.6217ZM315.444 20.6943H316.761C317.213 21.394 317.975 21.7438 319.045 21.7438C320.033 21.7438 320.774 21.394 321.267 20.6943H322.564C322.399 21.3528 321.995 21.8742 321.35 22.2583C320.719 22.6287 319.95 22.8139 319.045 22.8139C318.112 22.8139 317.323 22.6287 316.678 22.2583C316.034 21.8742 315.622 21.3528 315.444 20.6943ZM324.807 39.0095H323.264V27.6911L313.53 39.0095H313.201V24.2339H314.682V35.758L324.478 24.2339H324.807V39.0095Z" fill="#7A9CA5"/>
</svg>
